<?xml version="1.0" encoding="utf-8"?><svg viewBox="0 0 129 64" xmlns="http://www.w3.org/2000/svg" xmlns:xlink="http://www.w3.org/1999/xlink"><style>:root>svg{display:none}:root>svg:target{display:block}</style><svg viewBox="0 0 40 23" id="arrow-down" xmlns="http://www.w3.org/2000/svg"><path d="M1.5 2 20 20 38.5 2"/></svg><svg viewBox="0 0 21 12" id="arrow-small" xmlns="http://www.w3.org/2000/svg"><path d="m1.5 1.5 9 9 9-9"/></svg><svg viewBox="0 0 129 56" id="arrow-swiper-left" xmlns="http://www.w3.org/2000/svg"><path d="M129 28H50.5m0 0 26-26m-26 26 26 26"/></svg><svg viewBox="0 0 129 56" id="arrow-swiper-right" xmlns="http://www.w3.org/2000/svg"><path d="M0 28h78.5m0 0-26-26m26 26-26 26"/></svg><svg viewBox="0 0 64 64" id="exp1" xmlns="http://www.w3.org/2000/svg"><g clip-path="url(#ea)" fill-opacity=".82"><path d="M37.595 35.339a1.067 1.067 0 0 0 .702 2.015c8.86-3.07 14.207-12.09 12.65-21.335C49.39 6.771 41.384.002 32.007.002c-9.375 0-17.381 6.77-18.938 16.017-1.557 9.246 3.79 18.264 12.65 21.335a1.067 1.067 0 0 0 .7-2.016 17.024 17.024 0 0 1-5.083-2.827v-1.162a8.028 8.028 0 0 1 5.15-7.505 9.542 9.542 0 0 0 11.032 0 8.028 8.028 0 0 1 5.151 7.505v1.166a17.026 17.026 0 0 1-5.074 2.824ZM24.535 16a7.467 7.467 0 1 1 7.468 7.467A7.475 7.475 0 0 1 24.536 16Zm14.72 6.265a9.6 9.6 0 1 0-14.514 0 10.162 10.162 0 0 0-5.504 8.242c-6.08-6.853-5.666-17.285.94-23.633 6.606-6.348 17.045-6.348 23.651 0 6.606 6.348 7.021 16.78.94 23.633a10.158 10.158 0 0 0-5.512-8.242Z"/><path d="M22.827 63.585a2.117 2.117 0 0 0 2.24.172l6.94-3.606 6.94 3.607a2.133 2.133 0 0 0 3.086-2.258l-1.318-7.608 5.579-5.377a2.133 2.133 0 0 0-1.174-3.647l-7.744-1.112-3.456-6.947a2.12 2.12 0 0 0-1.912-1.182 2.122 2.122 0 0 0-1.909 1.178l-3.475 6.95-7.727 1.112a2.133 2.133 0 0 0-1.173 3.648l5.58 5.377-1.319 7.608a2.122 2.122 0 0 0 .842 2.085ZM19.2 46.98l8.28-1.191c.346-.05.645-.266.802-.578l3.725-7.45 3.709 7.448c.156.313.456.53.803.58l8.296 1.191-5.988 5.77a1.066 1.066 0 0 0-.31.95l1.415 8.168-7.431-3.863a1.067 1.067 0 0 0-.984 0l-7.432 3.863L25.5 53.7a1.066 1.066 0 0 0-.31-.95l-5.99-5.772Z"/><path d="m5.015 47.17-1.042 6.026a1.93 1.93 0 0 0 2.79 2.05l5.505-2.864 5.502 2.871a1.066 1.066 0 1 0 .986-1.892l-5.995-3.125a1.067 1.067 0 0 0-.986 0l-5.628 2.932 1.066-6.187a1.067 1.067 0 0 0-.31-.95l-4.53-4.373 6.269-.9c.346-.05.646-.267.802-.58l2.824-5.647 2.814 5.646c.157.314.457.53.804.58l6.698.96a1.067 1.067 0 1 0 .302-2.112l-6.144-.88-2.749-5.517a1.92 1.92 0 0 0-1.729-1.066h-.006a1.897 1.897 0 0 0-1.707 1.06l-2.763 5.523-6.126.88A1.92 1.92 0 0 0 .596 42.9l4.419 4.27Zm58.891-6.257a1.9 1.9 0 0 0-1.558-1.307l-6.133-.88-2.756-5.523a1.902 1.902 0 0 0-1.707-1.066h-.006a1.92 1.92 0 0 0-1.73 1.066l-2.748 5.516-6.145.88a1.067 1.067 0 0 0 .302 2.112l6.698-.96c.348-.05.648-.266.805-.58l2.807-5.64 2.82 5.647c.156.313.455.53.801.58l6.266.899-4.53 4.373a1.067 1.067 0 0 0-.31.95l1.072 6.187-5.63-2.935a1.067 1.067 0 0 0-.985 0l-5.995 3.125a1.067 1.067 0 0 0 .986 1.892l5.505-2.867 5.504 2.872a1.928 1.928 0 0 0 2.788-2.047l-1.039-6.037 4.423-4.266a1.92 1.92 0 0 0 .495-1.99Zm-37.772 9.369c.051 0 .102-.005.153-.012l4.012-.577c.346-.05.646-.266.802-.578l1.856-3.711a1.069 1.069 0 1 0-1.91-.96l-1.6 3.212-3.46.498a1.067 1.067 0 0 0 .151 2.122l-.004.006Z"/></g><defs><clipPath id="ea"><path d="M0 0h64v64H0z"/></clipPath></defs></svg><svg viewBox="0 0 64 64" id="exp2" xmlns="http://www.w3.org/2000/svg"><g clip-path="url(#fa)" fill-opacity=".82"><path d="M60.8 29.867H3.2a3.2 3.2 0 0 0-3.2 3.2V60.8A3.2 3.2 0 0 0 3.2 64h57.6a3.2 3.2 0 0 0 3.2-3.2V33.067a3.2 3.2 0 0 0-3.2-3.2ZM61.867 60.8c0 .59-.478 1.067-1.067 1.067H3.2c-.59 0-1.067-.478-1.067-1.067V33.067c0-.59.478-1.067 1.067-1.067h57.6c.59 0 1.067.478 1.067 1.067V60.8Z"/><path d="M58.666 39.467a4.267 4.267 0 0 1-4.267-4.267c0-.59-.478-1.067-1.067-1.067H10.666c-.59 0-1.067.478-1.067 1.067a4.267 4.267 0 0 1-4.267 4.267c-.589 0-1.066.477-1.066 1.066v12.8c0 .59.477 1.067 1.066 1.067A4.267 4.267 0 0 1 9.6 58.667c0 .589.477 1.066 1.067 1.066h42.666c.59 0 1.067-.477 1.067-1.066a4.267 4.267 0 0 1 4.267-4.267c.589 0 1.066-.478 1.066-1.067v-12.8c0-.589-.477-1.066-1.066-1.066ZM11.647 57.6a6.4 6.4 0 0 0-5.248-5.248V41.515a6.4 6.4 0 0 0 5.248-5.248h13.29a12.8 12.8 0 0 0 0 21.333h-13.29Zm20.352-21.333c5.891 0 10.667 4.775 10.667 10.666S37.89 57.6 31.999 57.6s-10.667-4.776-10.667-10.667c0-5.89 4.776-10.666 10.667-10.666Zm25.6 16.085a6.4 6.4 0 0 0-5.248 5.248h-13.29a12.8 12.8 0 0 0 0-21.333h13.29a6.4 6.4 0 0 0 5.248 5.248v10.837Z"/><path d="M32.001 52.267a2.133 2.133 0 0 1-2.133-2.134 1.067 1.067 0 1 0-2.134 0 4.267 4.267 0 0 0 3.2 4.118v1.216a1.067 1.067 0 1 0 2.134 0V54.25A4.267 4.267 0 0 0 32 45.867a2.133 2.133 0 1 1 2.133-2.134 1.067 1.067 0 1 0 2.134 0 4.267 4.267 0 0 0-3.2-4.117V38.4a1.067 1.067 0 0 0-2.134 0v1.216A4.267 4.267 0 0 0 32.001 48a2.133 2.133 0 1 1 0 4.267ZM10.135 27.733h9.6a1.6 1.6 0 0 0 1.6-1.6v-6.4a1.6 1.6 0 0 0-1.6-1.6h-9.6a1.6 1.6 0 0 0-1.6 1.6v6.4a1.6 1.6 0 0 0 1.6 1.6Zm.534-7.466h8.533V25.6h-8.534v-5.333Zm16.533 7.466h9.6a1.6 1.6 0 0 0 1.6-1.6V15.467a1.6 1.6 0 0 0-1.6-1.6h-9.6a1.6 1.6 0 0 0-1.6 1.6v10.666a1.6 1.6 0 0 0 1.6 1.6ZM27.735 16h8.533v9.6h-8.533V16Zm13.98-4.267h.95v14.4a1.6 1.6 0 0 0 1.6 1.6h9.6a1.6 1.6 0 0 0 1.6-1.6v-14.4h.95a1.61 1.61 0 0 0 1.183-2.666L50.26.81a1.653 1.653 0 0 0-2.39 0l-7.338 8.256a1.61 1.61 0 0 0 1.184 2.666Zm7.35-9.066L55.219 9.6h-.288a1.6 1.6 0 0 0-1.6 1.6v14.4h-8.533V11.2a1.6 1.6 0 0 0-1.6-1.6h-.288l6.155-6.933Z"/></g><defs><clipPath id="fa"><path d="M0 0h64v64H0z"/></clipPath></defs></svg><svg viewBox="0 0 64 64" id="exp3" xmlns="http://www.w3.org/2000/svg"><path d="M52.187 29.395a7.554 7.554 0 0 1 2.45.669c-2.153-5.349-6.09-9.731-11.067-12.405.372.891.669 1.783.817 2.748 3.343 2.229 6.091 5.348 7.8 8.988ZM31.984 61.558c-3.566 0-6.908-.817-9.88-2.303h-3.862c3.937 2.674 8.617 4.234 13.742 4.234s9.879-1.56 13.741-4.234h-3.862c-2.971 1.412-6.314 2.303-9.88 2.303ZM19.582 20.407a9.612 9.612 0 0 1 .892-2.822c-4.977 2.674-8.988 7.056-11.068 12.404a11.8 11.8 0 0 1 2.451-.668c1.635-3.566 4.383-6.685 7.726-8.914Zm3.043 19.016c0 5.2 4.234 9.359 9.36 9.359 5.124 0 9.358-4.16 9.358-9.36 0-5.199-4.234-9.358-9.359-9.358s-9.359 4.233-9.359 9.359Zm16.787 0c0 4.085-3.342 7.428-7.428 7.428-4.085 0-7.428-3.343-7.428-7.428 0-4.086 3.343-7.428 7.428-7.428 4.086 0 7.428 3.342 7.428 7.428Z"/><path d="M29.237 39.126c-.372-.372-.966-.372-1.412 0-.371.371-.371.965 0 1.41l2.303 2.303c.149.15.446.298.669.298.222 0 .52-.075.668-.297l4.531-4.532c.371-.37.371-.965 0-1.41-.371-.372-.965-.372-1.411 0l-3.863 3.862-1.485-1.634Zm-6.912-12.628h19.313c.52 0 .965-.446.965-.965V22.71c0-4.531-2.822-8.394-6.833-9.954 1.782-1.188 2.896-3.268 2.896-5.496 0-3.714-3.045-6.685-6.685-6.685-3.64 0-6.685 3.045-6.685 6.685 0 2.303 1.114 4.308 2.897 5.497-4.011 1.56-6.834 5.422-6.834 9.953v2.823c0 .52.372.965.966.965ZM27.227 7.26c0-2.6 2.154-4.754 4.754-4.754 2.6 0 4.754 2.154 4.754 4.754 0 2.6-2.154 4.754-4.754 4.754-2.6 0-4.754-2.154-4.754-4.754Zm-3.936 15.45c0-4.828 3.936-8.69 8.69-8.69s8.691 3.862 8.691 8.69v1.857h-2.303v-2.971a.983.983 0 0 0-.965-.966.983.983 0 0 0-.966.966v2.897h-8.913v-2.897a.983.983 0 0 0-.966-.966.983.983 0 0 0-.966.966v2.897h-2.302V22.71Zm31.795 20.798c1.783-1.188 2.897-3.268 2.897-5.496 0-3.714-3.046-6.686-6.685-6.686-3.714 0-6.685 3.046-6.685 6.686 0 2.302 1.114 4.308 2.897 5.496-4.012 1.56-6.834 5.423-6.834 9.954v2.822c0 .52.445.966.965.966h19.387c.52 0 .966-.446.966-.966v-2.822c-.074-4.531-2.971-8.394-6.908-9.954Zm-8.616-5.496c0-2.6 2.154-4.754 4.753-4.754 2.6 0 4.754 2.154 4.754 4.754 0 2.6-2.154 4.753-4.754 4.753a4.74 4.74 0 0 1-4.753-4.753Zm13.444 17.307h-2.303v-2.897a.983.983 0 0 0-.965-.966.983.983 0 0 0-.966.966v2.897h-8.839v-2.897a.983.983 0 0 0-.966-.966.983.983 0 0 0-.965.966v2.897h-2.303v-1.857c0-4.829 3.937-8.691 8.69-8.691 4.829 0 8.691 3.937 8.691 8.69v1.858h-.074Zm-36.545.965v-2.822c0-4.531-2.823-8.394-6.834-9.954 1.783-1.188 2.897-3.268 2.897-5.496 0-3.714-3.045-6.686-6.685-6.686-3.714 0-6.685 3.046-6.685 6.686 0 2.302 1.114 4.308 2.897 5.496-4.011 1.56-6.834 5.423-6.834 9.954v2.822c0 .52.446.966.966.966h19.386c.446 0 .892-.446.892-.966ZM7.993 38.012c0-2.6 2.154-4.754 4.754-4.754 2.6 0 4.754 2.154 4.754 4.754 0 2.6-2.154 4.753-4.754 4.753a4.74 4.74 0 0 1-4.754-4.753Zm13.445 17.307h-2.303v-2.897a.983.983 0 0 0-.966-.966.983.983 0 0 0-.965.966v2.897H8.29v-2.897a.983.983 0 0 0-.965-.966.983.983 0 0 0-.966.966v2.897H4.056v-1.857c0-4.829 3.937-8.691 8.69-8.691 4.83 0 8.692 3.937 8.692 8.69v1.858Z"/></svg><svg viewBox="0 0 64 64" id="exp4" xmlns="http://www.w3.org/2000/svg"><path d="m10.299 10.293 1.983 4.115 4.5.615c.891.12 1.21 1.23.598 1.817l-3.287 3.167.812 4.489c.16.882-.772 1.55-1.545 1.122l-4.006-2.164-4.007 2.164a1.058 1.058 0 0 1-1.53-1.189l.798-4.436-3.288-3.166c-.639-.615-.293-1.71.612-1.83l4.486-.615 1.984-4.116c.372-.788 1.517-.775 1.89.027Zm.32 5.558-1.265-2.645-1.278 2.645a1.09 1.09 0 0 1-.812.602l-2.889.387 2.117 2.031c.24.24.373.588.306.949l-.52 2.886 2.557-1.377c.306-.16.692-.187 1.011 0l2.57 1.39-.507-2.833a1.09 1.09 0 0 1 .293-1.015l2.117-2.03-2.862-.388a1.087 1.087 0 0 1-.839-.602ZM32.953.606l1.984 4.116 4.512.614c.892.12 1.212 1.23.6 1.83l-3.289 3.167.812 4.49c.16.881-.772 1.55-1.544 1.122l-4.033-2.165-4.007 2.165a1.057 1.057 0 0 1-1.53-1.19l.798-4.435-3.3-3.167c-.64-.614-.294-1.71.611-1.83l4.486-.615L31.038.606a1.06 1.06 0 0 1 1.916 0Zm.32 5.559-1.278-2.646-1.265 2.646a1.09 1.09 0 0 1-.812.6l-2.901.388 2.116 2.031c.253.24.373.588.306.949l-.519 2.886 2.57-1.376c.305-.16.678-.188 1.01 0l2.57 1.39-.506-2.833a1.09 1.09 0 0 1 .293-1.016l2.116-2.03-2.861-.402a1.023 1.023 0 0 1-.84-.587Zm22.323 4.128 1.983 4.115 4.5.615c.891.12 1.224 1.23.598 1.817l-3.288 3.167.812 4.489c.16.882-.772 1.55-1.544 1.122l-4.006-2.164-4.007 2.164A1.068 1.068 0 0 1 49.1 24.43l.799-4.436-3.288-3.166c-.64-.615-.293-1.71.612-1.83l4.486-.615 1.983-4.116c.386-.788 1.53-.775 1.904.027Zm.32 5.558-1.265-2.645-1.278 2.645a1.07 1.07 0 0 1-.812.602l-2.889.387 2.103 2.031c.24.24.373.588.306.949l-.519 2.886 2.57-1.377c.306-.16.692-.187 1.011 0l2.582 1.39-.505-2.833a1.09 1.09 0 0 1 .293-1.015l2.103-2.03-2.862-.388a1.087 1.087 0 0 1-.839-.602Zm-28.86 21.726a1.062 1.062 0 1 1 1.837-1.069l1.398 2.432 4.965-4.984a1.066 1.066 0 0 1 1.504 0 1.076 1.076 0 0 1 0 1.51l-5.95 5.972a1.056 1.056 0 0 1-1.664-.214l-2.09-3.647Zm4.939-11.29c5.79 0 10.49 4.716 10.49 10.528s-4.7 10.529-10.49 10.529-10.49-4.717-10.49-10.529 4.7-10.529 10.49-10.529Zm5.91 4.596a8.341 8.341 0 0 0-11.82 0c-3.261 3.273-3.261 8.59 0 11.864a8.341 8.341 0 0 0 11.82 0c3.261-3.286 3.261-8.59 0-11.864Zm-5.91-11.21c9.424 0 17.065 7.669 17.065 17.129 0 3.58-1.092 6.907-2.968 9.66l5.098 8.858a1.069 1.069 0 0 1-1.065 1.63l-5.218-.828-2.796 3.447a1.055 1.055 0 0 1-1.77-.107l-3.567-6.2a17.096 17.096 0 0 1-9.558 0l-3.567 6.2a1.055 1.055 0 0 1-1.77.107l-2.796-3.447-5.218.828c-.892.147-1.517-.828-1.091-1.59l5.124-8.898c-4.632-6.801-3.767-15.953 2.037-21.779a16.99 16.99 0 0 1 12.06-5.01Zm12.686 28.593a17.02 17.02 0 0 1-5.884 4.262l2.609 4.53 2.236-2.753c.253-.32.64-.441 1.012-.374l3.594.574-3.568-6.24ZM25.18 52.528a17.235 17.235 0 0 1-5.87-4.25l-3.581 6.227 3.594-.574a1.07 1.07 0 0 1 1.011.374l2.237 2.752 2.609-4.53Zm17.384-26.322c-5.83-5.852-15.294-5.852-21.125 0-5.83 5.853-5.83 15.352 0 21.204 5.844 5.853 15.295 5.853 21.125 0 5.83-5.852 5.83-15.351 0-21.204Z"/></svg><svg viewBox="0 0 24 24" id="insta" xmlns="http://www.w3.org/2000/svg"><g clip-path="url(#ia)"><path d="M12.236 24h-.239a83.484 83.484 0 0 1-5.31-.146c-1.55-.094-2.964-.63-4.09-1.549C1.508 21.42.766 20.22.388 18.742c-.328-1.286-.345-2.548-.362-3.77-.012-.875-.024-1.914-.027-2.97.003-1.06.015-2.098.027-2.974.017-1.22.034-2.483.362-3.77.377-1.477 1.12-2.676 2.207-3.562C3.723.776 5.138.24 6.688.146c1.69-.102 3.429-.15 5.314-.145 1.882-.004 3.62.043 5.31.146 1.55.094 2.964.63 4.091 1.549 1.088.886 1.83 2.085 2.207 3.562.328 1.286.345 2.55.362 3.77.012.876.025 1.914.027 2.97-.002 1.06-.015 2.099-.027 2.975a.938.938 0 0 1-1.875-.026c.012-.87.025-1.902.027-2.949a260.801 260.801 0 0 0-.027-2.944c-.015-1.112-.03-2.261-.304-3.332-.276-1.08-.805-1.946-1.575-2.573-.832-.679-1.848-1.06-3.02-1.13-1.65-.1-3.35-.147-5.196-.143-1.85-.005-3.55.042-5.2.142-1.173.072-2.189.452-3.021 1.13-.77.628-1.3 1.494-1.575 2.574-.273 1.07-.289 2.22-.304 3.332-.012.87-.024 1.902-.027 2.949.003 1.042.015 2.073.027 2.944.015 1.112.03 2.261.304 3.332.276 1.08.806 1.946 1.575 2.573.832.679 1.848 1.06 3.02 1.13 1.651.1 3.35.148 5.196.143a81.86 81.86 0 0 0 5.2-.143c1.173-.07 2.189-.451 3.021-1.13a4.505 4.505 0 0 0 1.287-1.724.937.937 0 0 1 1.72.745 6.359 6.359 0 0 1-1.822 2.432c-1.127.92-2.541 1.455-4.091 1.549a82.996 82.996 0 0 1-5.076.146Zm5.576-12a5.867 5.867 0 0 0-5.86-5.859 5.866 5.866 0 0 0-5.859 5.86 5.867 5.867 0 0 0 5.86 5.859A5.867 5.867 0 0 0 17.812 12Zm-1.875 0a3.989 3.989 0 0 1-3.984 3.985A3.989 3.989 0 0 1 7.968 12a3.989 3.989 0 0 1 3.985-3.984A3.989 3.989 0 0 1 15.937 12Zm2.531-7.734a1.406 1.406 0 1 0 0 2.813 1.406 1.406 0 0 0 0-2.813Z"/></g><defs><clipPath id="ia"><path d="M0 0h24v24H0z"/></clipPath></defs></svg><svg viewBox="0 0 13 14" id="square" xmlns="http://www.w3.org/2000/svg"><path d="M0 7h13"/></svg><svg viewBox="0 0 24 24" id="whatsupp" xmlns="http://www.w3.org/2000/svg"><g clip-path="url(#ka)"><path d="M12 23.904h-.005c-1.872 0-3.729-.443-5.393-1.282L1.474 23.79A.938.938 0 0 1 .35 22.673l1.112-5.05C.507 15.858.002 13.927 0 12.012v-.02c.001-3.172 1.256-6.16 3.533-8.413A11.968 11.968 0 0 1 12 .094a11.906 11.906 0 0 1 8.454 3.488C22.742 5.862 24 8.852 24 12.003c0 2.381-.715 4.682-2.064 6.654a.937.937 0 1 1-1.548-1.058 9.88 9.88 0 0 0 1.737-5.596c0-2.649-1.063-5.167-2.995-7.092A10.042 10.042 0 0 0 12 1.969c-5.575 0-10.113 4.488-10.125 10.008v.018c0 1.708.48 3.441 1.39 5.01a.937.937 0 0 1 .105.672l-.87 3.956 4.023-.915a.94.94 0 0 1 .655.09c1.47.798 3.136 1.22 4.817 1.22H12c1.828 0 3.623-.493 5.192-1.429a.937.937 0 1 1 .96 1.61A12.02 12.02 0 0 1 12 23.905ZM9.352 7.229c-.206-.456-.422-.471-.617-.479h-.527c-.183 0-.48.068-.731.342-.252.274-.961.936-.961 2.282s.983 2.646 1.12 2.83c.138.182 1.9 3.032 4.69 4.129 2.318.911 2.79.73 3.293.684.503-.046 1.624-.662 1.853-1.3.229-.64.229-1.187.16-1.301-.069-.114-.252-.183-.526-.32-.275-.136-1.62-.81-1.872-.9-.251-.092-.434-.137-.617.137-.183.273-.722.906-.883 1.088-.16.183-.32.206-.594.07-.275-.138-1.15-.432-2.199-1.364-.816-.725-1.382-1.65-1.542-1.924-.16-.273-.017-.422.12-.558.124-.123.29-.29.428-.45.137-.16.176-.274.267-.456.092-.183.046-.342-.022-.48-.069-.136-.596-1.49-.84-2.03"/></g><defs><clipPath id="ka"><path d="M0 0h24v24H0z"/></clipPath></defs></svg></svg>