<?xml version="1.0" standalone="no"?>
  <!DOCTYPE svg PUBLIC "-//W3C//DTD SVG 1.1//EN" "http://www.w3.org/Graphics/SVG/1.1/DTD/svg11.dtd" >
  <svg>
  <metadata>
  Created by font-carrier
  </metadata>
  <defs>
  <font id="Unbounded-ExtraBold" horiz-adv-x="1910" vert-adv-y="1910" >
    <font-face
      
      font-family="Unbounded ExtraBold"
      
      font-weight="400"
      
      font-stretch="normal"
      
      units-per-em="1000"
      
      ascent="995"
      
      descent="-245"
      
    />
      <missing-glyph />

      

      
      <glyph glyph-name="uni41" unicode="&#x41;" d="M227 135L227 321L741 321L741 135L227 135M642 750L978 0L729 0L457 649L520 649L247 0L-1 0L334 750L642 750Z"  horiz-adv-x="977" vert-adv-y="1000"  />

      
      <glyph glyph-name="unic1" unicode="&#xc1;" d="M227 135L227 321L741 321L741 135L227 135M642 750L978 0L729 0L457 649L520 649L247 0L-1 0L334 750L642 750M501 978L759 978L582 804L354 804L501 978Z"  horiz-adv-x="977" vert-adv-y="1000"  />

      
      <glyph glyph-name="uni0102" unicode="&#x0102;" d="M227 135L227 321L741 321L741 135L227 135M642 750L978 0L729 0L457 649L520 649L247 0L-1 0L334 750L642 750M221 983L394 983Q409 958 432.50 945.50Q456 933 488 933Q521 933 544.50 945.50Q568 958 583 983L756 983Q729 887 658.50 841Q588 795 488 795Q390 795 319 841Q248 887 221 983Z"  horiz-adv-x="977" vert-adv-y="1000"  />

      
      <glyph glyph-name="uni1EAE" unicode="&#x1EAE;" d="M227 135L227 321L741 321L741 135L227 135M642 750L978 0L729 0L457 649L520 649L247 0L-1 0L334 750L642 750M488 1171L693 1171L566 1005L392 1005L488 1171M221 983L394 983Q409 958 432 945.50Q455 933 488 933Q521 933 544 945.50Q567 958 583 983L755 983Q729 887 658.50 841Q588 795 488 795Q389 795 318.50 841Q248 887 221 983Z"  horiz-adv-x="977" vert-adv-y="1000"  />

      
      <glyph glyph-name="uni1EB6" unicode="&#x1EB6;" d="M227 135L227 321L741 321L741 135L227 135M642 750L978 0L729 0L457 649L520 649L247 0L-1 0L334 750L642 750M488-260Q430-260 394-231Q358-202 358-153Q358-103 394-74Q430-45 488-45Q548-45 583.50-74Q619-103 619-153Q619-202 583.50-231Q548-260 488-260M221 983L394 983Q409 958 432.50 945.50Q456 933 488 933Q521 933 544.50 945.50Q568 958 583 983L756 983Q729 887 658.50 841Q588 795 488 795Q390 795 319 841Q248 887 221 983Z"  horiz-adv-x="977" vert-adv-y="1000"  />

      
      <glyph glyph-name="uni1EB0" unicode="&#x1EB0;" d="M227 135L227 321L741 321L741 135L227 135M642 750L978 0L729 0L457 649L520 649L247 0L-1 0L334 750L642 750M484 1171L580 1005L406 1005L279 1171L484 1171M221 983L394 983Q409 958 432 945.50Q455 933 488 933Q521 933 544 945.50Q567 958 583 983L755 983Q729 887 658.50 841Q588 795 488 795Q389 795 318.50 841Q248 887 221 983Z"  horiz-adv-x="977" vert-adv-y="1000"  />

      
      <glyph glyph-name="uni1EB2" unicode="&#x1EB2;" d="M227 135L227 321L741 321L741 135L227 135M642 750L978 0L729 0L457 649L520 649L247 0L-1 0L334 750L642 750M478 991L439 1044Q467 1054 480 1065Q493 1076 493 1087Q493 1115 439 1115Q425 1115 409 1113.50Q393 1112 377 1108L377 1222Q397 1227 429.50 1232Q462 1237 500 1237Q583 1237 629 1209.50Q675 1182 675 1134Q675 1084 625.50 1048Q576 1012 478 991M221 983L394 983Q409 958 432 945.50Q455 933 488 933Q521 933 544 945.50Q567 958 583 983L755 983Q729 887 658.50 841Q588 795 488 795Q389 795 318.50 841Q248 887 221 983Z"  horiz-adv-x="977" vert-adv-y="1000"  />

      
      <glyph glyph-name="uni1EB4" unicode="&#x1EB4;" d="M227 135L227 321L741 321L741 135L227 135M642 750L978 0L729 0L457 649L520 649L247 0L-1 0L334 750L642 750M243 1019Q247 1098 284 1146.50Q321 1195 390 1195Q421 1195 445 1188Q469 1181 487.50 1171.50Q506 1162 521.50 1154Q537 1146 551 1146Q571 1146 581.50 1158.50Q592 1171 596 1194L733 1194Q729 1112 692 1064.50Q655 1017 586 1017Q555 1017 531 1024.50Q507 1032 488.50 1042Q470 1052 454.50 1059Q439 1066 424 1066Q405 1066 394 1053.50Q383 1041 379 1019L243 1019M221 983L394 983Q409 958 432 945.50Q455 933 488 933Q521 933 544 945.50Q567 958 583 983L755 983Q729 887 658.50 841Q588 795 488 795Q389 795 318.50 841Q248 887 221 983Z"  horiz-adv-x="977" vert-adv-y="1000"  />

      
      <glyph glyph-name="uni01CD" unicode="&#x01CD;" d="M227 135L227 321L741 321L741 135L227 135M642 750L978 0L729 0L457 649L520 649L247 0L-1 0L334 750L642 750M608 803L369 803L215 977L399 977L542 873L435 873L578 977L761 977L608 803Z"  horiz-adv-x="977" vert-adv-y="1000"  />

      
      <glyph glyph-name="unic2" unicode="&#xc2;" d="M227 135L227 321L741 321L741 135L227 135M642 750L978 0L729 0L457 649L520 649L247 0L-1 0L334 750L642 750M369 978L608 978L761 804L577 804L435 908L542 908L399 804L215 804L369 978Z"  horiz-adv-x="977" vert-adv-y="1000"  />

      
      <glyph glyph-name="uni1EA4" unicode="&#x1EA4;" d="M227 135L227 321L741 321L741 135L227 135M642 750L978 0L729 0L457 649L520 649L247 0L-1 0L334 750L642 750M763 1106L968 1106L841 940L667 940L763 1106M369 978L608 978L762 804L578 804L435 908L542 908L399 804L216 804L369 978Z"  horiz-adv-x="977" vert-adv-y="1000"  />

      
      <glyph glyph-name="uni1EAC" unicode="&#x1EAC;" d="M227 135L227 321L741 321L741 135L227 135M642 750L978 0L729 0L457 649L520 649L247 0L-1 0L334 750L642 750M488-260Q430-260 394-231Q358-202 358-153Q358-103 394-74Q430-45 488-45Q548-45 583.50-74Q619-103 619-153Q619-202 583.50-231Q548-260 488-260M369 978L608 978L761 804L577 804L435 908L542 908L399 804L215 804L369 978Z"  horiz-adv-x="977" vert-adv-y="1000"  />

      
      <glyph glyph-name="uni1EA6" unicode="&#x1EA6;" d="M227 135L227 321L741 321L741 135L227 135M642 750L978 0L729 0L457 649L520 649L247 0L-1 0L334 750L642 750M769 1106L865 940L691 940L564 1106L769 1106M369 978L608 978L762 804L578 804L435 908L542 908L399 804L216 804L369 978Z"  horiz-adv-x="977" vert-adv-y="1000"  />

      
      <glyph glyph-name="uni1EA8" unicode="&#x1EA8;" d="M227 135L227 321L741 321L741 135L227 135M642 750L978 0L729 0L457 649L520 649L247 0L-1 0L334 750L642 750M714 918L674 971Q702 981 715 992Q728 1003 728 1015Q728 1042 674 1042Q661 1042 645 1040.50Q629 1039 612 1035L612 1149Q632 1155 665 1159.50Q698 1164 735 1164Q818 1164 864 1137Q910 1110 910 1061Q910 1012 861 975.50Q812 939 714 918M369 978L608 978L762 804L578 804L435 908L542 908L399 804L216 804L369 978Z"  horiz-adv-x="977" vert-adv-y="1000"  />

      
      <glyph glyph-name="uni1EAA" unicode="&#x1EAA;" d="M227 135L227 321L741 321L741 135L227 135M642 750L978 0L729 0L457 649L520 649L247 0L-1 0L334 750L642 750M241 1017Q246 1096 283 1145Q320 1194 389 1194Q420 1194 444 1186.50Q468 1179 486 1169.50Q504 1160 520 1152.50Q536 1145 550 1145Q569 1145 580 1157Q591 1169 595 1192L732 1192Q728 1110 690.50 1062.50Q653 1015 584 1015Q553 1015 529 1023Q505 1031 486.50 1040.50Q468 1050 452.50 1057Q437 1064 423 1064Q403 1064 392.50 1052Q382 1040 378 1017L241 1017M369 978L608 978L761 804L577 804L435 908L542 908L399 804L215 804L369 978Z"  horiz-adv-x="977" vert-adv-y="1000"  />

      
      <glyph glyph-name="uni0200" unicode="&#x0200;" d="M227 135L227 321L741 321L741 135L227 135M642 750L978 0L729 0L457 649L520 649L247 0L-1 0L334 750L642 750M601 978L725 804L528 804L384 978L601 978M324 978L448 804L250 804L106 978L324 978Z"  horiz-adv-x="977" vert-adv-y="1000"  />

      
      <glyph glyph-name="unic4" unicode="&#xc4;" d="M227 135L227 321L741 321L741 135L227 135M642 750L978 0L729 0L457 649L520 649L247 0L-1 0L334 750L642 750M331 799Q276 799 243 826Q210 853 210 902Q210 948 243 975Q276 1002 331 1002Q386 1002 419 975Q452 948 452 902Q452 853 419 826Q386 799 331 799M646 799Q591 799 558 826Q525 853 525 902Q525 948 558 975Q591 1002 646 1002Q701 1002 734 975Q767 948 767 902Q767 853 734 826Q701 799 646 799Z"  horiz-adv-x="977" vert-adv-y="1000"  />

      
      <glyph glyph-name="uni01DE" unicode="&#x01DE;" d="M227 135L227 321L741 321L741 135L227 135M642 750L978 0L729 0L457 649L520 649L247 0L-1 0L334 750L642 750M331 799Q276 799 243 826Q210 853 210 902Q210 948 243 975Q276 1002 331 1002Q386 1002 419 975Q452 948 452 902Q452 853 419 826Q386 799 331 799M646 799Q591 799 558 826Q525 853 525 902Q525 948 558 975Q591 1002 646 1002Q701 1002 734 975Q767 948 767 902Q767 853 734 826Q701 799 646 799M236 1045L236 1179L742 1179L742 1045L236 1045Z"  horiz-adv-x="977" vert-adv-y="1000"  />

      
      <glyph glyph-name="uni0226" unicode="&#x0226;" d="M227 135L227 321L741 321L741 135L227 135M642 750L978 0L729 0L457 649L520 649L247 0L-1 0L334 750L642 750M488 799Q430 799 394 827.50Q358 856 358 906Q358 956 394 985Q430 1014 488 1014Q548 1014 583.50 985Q619 956 619 906Q619 856 583.50 827.50Q548 799 488 799Z"  horiz-adv-x="977" vert-adv-y="1000"  />

      
      <glyph glyph-name="uni1EA0" unicode="&#x1EA0;" d="M227 135L227 321L741 321L741 135L227 135M642 750L978 0L729 0L457 649L520 649L247 0L-1 0L334 750L642 750M488-260Q430-260 394-231Q358-202 358-153Q358-103 394-74Q430-45 488-45Q548-45 583.50-74Q619-103 619-153Q619-202 583.50-231Q548-260 488-260Z"  horiz-adv-x="977" vert-adv-y="1000"  />

      
      <glyph glyph-name="uni01E0" unicode="&#x01E0;" d="M227 135L227 321L741 321L741 135L227 135M642 750L978 0L729 0L457 649L520 649L247 0L-1 0L334 750L642 750M488 799Q430 799 394 827.50Q358 856 358 906Q358 956 394 985Q430 1014 488 1014Q548 1014 583.50 985Q619 956 619 906Q619 856 583.50 827.50Q548 799 488 799M235 1045L235 1179L741 1179L741 1045L235 1045Z"  horiz-adv-x="977" vert-adv-y="1000"  />

      
      <glyph glyph-name="unic0" unicode="&#xc0;" d="M227 135L227 321L741 321L741 135L227 135M642 750L978 0L729 0L457 649L520 649L247 0L-1 0L334 750L642 750M466 978L613 804L384 804L208 978L466 978Z"  horiz-adv-x="977" vert-adv-y="1000"  />

      
      <glyph glyph-name="uni1EA2" unicode="&#x1EA2;" d="M227 135L227 321L741 321L741 135L227 135M642 750L978 0L729 0L457 649L520 649L247 0L-1 0L334 750L642 750M440 790L400 857Q447 865 466 875.50Q485 886 485 897Q485 908 471 913.50Q457 919 428 919Q405 919 386 916.50Q367 914 345 910L345 1021Q366 1028 405 1034Q444 1040 484 1040Q578 1040 627 1014.50Q676 989 676 931Q676 879 622 844.50Q568 810 440 790Z"  horiz-adv-x="977" vert-adv-y="1000"  />

      
      <glyph glyph-name="uni0202" unicode="&#x0202;" d="M227 135L227 321L741 321L741 135L227 135M642 750L978 0L729 0L457 649L520 649L247 0L-1 0L334 750L642 750M755 799L583 799Q567 823 544 836Q521 849 488 849Q456 849 432.50 836Q409 823 394 799L221 799Q248 894 319 940Q390 986 488 986Q588 986 658.50 940Q729 894 755 799Z"  horiz-adv-x="977" vert-adv-y="1000"  />

      
      <glyph glyph-name="uni2C6D" unicode="&#x2C6D;" d="M718 0L683 269L718 375L683 479L718 750L940 750L891 375L940 0L718 0M780 375Q765 257 715 169Q665 81 586.50 32Q508-17 406-17Q296-17 212.50 32Q129 81 82.50 169Q36 257 36 375Q36 493 82.50 581Q129 669 212.50 718Q296 767 406 767Q507 767 586.50 719Q666 671 716 583.50Q766 496 780 375M271 375Q271 322 296 279.50Q321 237 365 212.50Q409 188 467 188Q520 188 567 212.50Q614 237 649.50 279.50Q685 322 702 375Q685 430 649.50 471.50Q614 513 567 537.50Q520 562 467 562Q409 562 365 537.50Q321 513 296 471.50Q271 430 271 375Z"  horiz-adv-x="986" vert-adv-y="1000"  />

      
      <glyph glyph-name="uni2C70" unicode="&#x2C70;" d="M268 0L46 0L96 375L46 750L268 750L303 479L269 375L303 269L268 0M206 375Q221 496 270.50 583.50Q320 671 399.50 719Q479 767 581 767Q691 767 774.50 718Q858 669 904 581Q950 493 950 375Q950 257 904 169Q858 81 774.50 32Q691-17 581-17Q479-17 400 32Q321 81 271.50 169Q222 257 206 375M715 375Q715 430 690.50 471.50Q666 513 621.50 537.50Q577 562 519 562Q467 562 419.50 537.50Q372 513 336.50 471.50Q301 430 284 375Q301 322 336.50 279.50Q372 237 419.50 212.50Q467 188 519 188Q577 188 621.50 212.50Q666 237 690.50 279.50Q715 322 715 375Z"  horiz-adv-x="986" vert-adv-y="1000"  />

      
      <glyph glyph-name="uni0100" unicode="&#x0100;" d="M227 135L227 321L741 321L741 135L227 135M642 750L978 0L729 0L457 649L520 649L247 0L-1 0L334 750L642 750M235 822L235 956L741 956L741 822L235 822Z"  horiz-adv-x="977" vert-adv-y="1000"  />

      
      <glyph glyph-name="uni0104" unicode="&#x0104;" d="M227 135L227 321L741 321L741 135L227 135M642 750L978 0L729 0L457 649L520 649L247 0L-1 0L334 750L642 750M883 21L954 12L954 0L977 0Q940-9 913-20.50Q886-32 872-43Q858-54 858-66Q858-93 919-93Q936-93 950-91Q964-89 977-86L977-202Q964-207 931-212Q898-217 862-217Q788-217 743-190Q698-163 698-120Q698-70 744.50-35.50Q791-1 883 21Z"  horiz-adv-x="977" vert-adv-y="1000"  />

      
      <glyph glyph-name="unic5" unicode="&#xc5;" d="M227 135L227 321L741 321L741 135L227 135M642 750L978 0L729 0L457 649L520 649L247 0L-1 0L334 750L642 750M488 785Q388 785 333 822.50Q278 860 278 928Q278 997 333 1034Q388 1071 488 1071Q589 1071 643.50 1034Q698 997 698 928Q698 860 643.50 822.50Q589 785 488 785M488 881Q533 881 553.50 893.50Q574 906 574 928Q574 951 553.50 963Q533 975 488 975Q443 975 423 963Q403 951 403 928Q403 906 423 893.50Q443 881 488 881Z"  horiz-adv-x="977" vert-adv-y="1000"  />

      
      <glyph glyph-name="uni01FA" unicode="&#x01FA;" d="M471 1244L675 1244L566 1049L401 1049L471 1244M227 135L227 321L741 321L741 135L227 135M642 750L978 0L729 0L457 649L520 649L247 0L-1 0L334 750L642 750M488 785Q388 785 333 822.50Q278 860 278 928Q278 997 333 1034Q388 1071 488 1071Q589 1071 644 1034Q699 997 699 928Q699 860 644 822.50Q589 785 488 785M488 881Q534 881 554 893.50Q574 906 574 928Q574 951 554 963Q534 975 488 975Q443 975 423 963Q403 951 403 928Q403 906 423 893.50Q443 881 488 881Z"  horiz-adv-x="977" vert-adv-y="1000"  />

      
      <glyph glyph-name="uni1E00" unicode="&#x1E00;" d="M227 135L227 321L741 321L741 135L227 135M642 750L978 0L729 0L457 649L520 649L247 0L-1 0L334 750L642 750M488-331Q395-331 342-292.50Q289-254 289-186Q289-119 342-80.50Q395-42 488-42Q582-42 635-80.50Q688-119 688-186Q688-254 635-292.50Q582-331 488-331M488-242Q524-242 543.50-227Q563-212 563-186Q563-160 543.50-145.50Q524-131 489-131Q454-131 434-145.50Q414-160 414-186Q414-212 434-227Q454-242 488-242Z"  horiz-adv-x="977" vert-adv-y="1000"  />

      
      <glyph glyph-name="uni023A" unicode="&#x023A;" d="M655 872L784 872L395-122L266-122L655 872M227 135L227 321L741 321L741 135L227 135M643 750L978 0L730 0L457 649L520 649L247 0L-1 0L334 750L643 750Z"  horiz-adv-x="977" vert-adv-y="1000"  />

      
      <glyph glyph-name="unic3" unicode="&#xc3;" d="M227 135L227 321L741 321L741 135L227 135M642 750L978 0L729 0L457 649L520 649L247 0L-1 0L334 750L642 750M204 808Q216 893 260.50 941Q305 989 392 989Q420 989 445.50 982Q471 975 494 966.50Q517 958 537 951Q557 944 574 944Q595 944 608.50 954Q622 964 626 983L772 983Q760 900 716 851Q672 802 585 802Q557 802 531.50 809Q506 816 483 825Q460 834 439.50 841Q419 848 402 848Q382 848 368 838Q354 828 351 808L204 808Z"  horiz-adv-x="977" vert-adv-y="1000"  />

      
      <glyph glyph-name="uni2C6F" unicode="&#x2C6F;" d="M749 615L749 429L236 429L236 615L749 615M334 0L-1 750L247 750L520 101L457 101L729 750L978 750L642 0L334 0Z"  horiz-adv-x="977" vert-adv-y="1000"  />

      
      <glyph glyph-name="unic6" unicode="&#xc6;" d="M805 293L845 186L1219 186L1219 0L677 0L434 686L511 686L250 0L2 0L308 750L1207 750L1207 564L709 564L749 457L1177 457L1177 293L805 293M211 135L211 321L697 321L697 135L211 135Z"  horiz-adv-x="1262" vert-adv-y="1000"  />

      
      <glyph glyph-name="uni01FC" unicode="&#x01FC;" d="M805 293L845 186L1219 186L1219 0L677 0L434 686L511 686L250 0L2 0L308 750L1207 750L1207 564L709 564L749 457L1177 457L1177 293L805 293M211 135L211 321L697 321L697 135L211 135M754 978L1012 978L835 804L607 804L754 978Z"  horiz-adv-x="1262" vert-adv-y="1000"  />

      
      <glyph glyph-name="uni01E2" unicode="&#x01E2;" d="M805 293L845 186L1219 186L1219 0L677 0L434 686L511 686L250 0L2 0L308 750L1207 750L1207 564L709 564L749 457L1177 457L1177 293L805 293M211 135L211 321L697 321L697 135L211 135M488 822L488 956L994 956L994 822L488 822Z"  horiz-adv-x="1262" vert-adv-y="1000"  />

      
      <glyph glyph-name="uni42" unicode="&#x42;" d="M591 366L610 408Q695 406 752 381.50Q809 357 837 314Q865 271 865 213Q865 152 837.50 103.50Q810 55 754 27.50Q698 0 615 0L44 0L101 385L44 750L594 750Q698 750 756.50 701.50Q815 653 815 567Q815 519 793.50 476Q772 433 722.50 403.50Q673 374 591 366M272 52L183 158L546 158Q585 158 607 177.50Q629 197 629 232Q629 265 606 286.50Q583 308 539 308L237 308L237 462L506 462Q537 462 558 481Q579 500 579 531Q579 557 560.50 574.50Q542 592 508 592L184 592L272 698L323 385L272 52Z"  horiz-adv-x="895" vert-adv-y="1000"  />

      
      <glyph glyph-name="uni1E02" unicode="&#x1E02;" d="M591 366L610 408Q695 406 752 381.50Q809 357 837 314Q865 271 865 213Q865 152 837.50 103.50Q810 55 754 27.50Q698 0 615 0L44 0L101 385L44 750L594 750Q698 750 756.50 701.50Q815 653 815 567Q815 519 793.50 476Q772 433 722.50 403.50Q673 374 591 366M272 52L183 158L546 158Q585 158 607 177.50Q629 197 629 232Q629 265 606 286.50Q583 308 539 308L237 308L237 462L506 462Q537 462 558 481Q579 500 579 531Q579 557 560.50 574.50Q542 592 508 592L184 592L272 698L323 385L272 52M431 799Q373 799 337 827.50Q301 856 301 906Q301 956 337 985Q373 1014 431 1014Q491 1014 526.50 985Q562 956 562 906Q562 856 526.50 827.50Q491 799 431 799Z"  horiz-adv-x="895" vert-adv-y="1000"  />

      
      <glyph glyph-name="uni1E04" unicode="&#x1E04;" d="M591 366L610 408Q695 406 752 381.50Q809 357 837 314Q865 271 865 213Q865 152 837.50 103.50Q810 55 754 27.50Q698 0 615 0L44 0L101 385L44 750L594 750Q698 750 756.50 701.50Q815 653 815 567Q815 519 793.50 476Q772 433 722.50 403.50Q673 374 591 366M272 52L183 158L546 158Q585 158 607 177.50Q629 197 629 232Q629 265 606 286.50Q583 308 539 308L237 308L237 462L506 462Q537 462 558 481Q579 500 579 531Q579 557 560.50 574.50Q542 592 508 592L184 592L272 698L323 385L272 52M453-260Q395-260 359-231Q323-202 323-153Q323-103 359-74Q395-45 453-45Q513-45 548.50-74Q584-103 584-153Q584-202 548.50-231Q513-260 453-260Z"  horiz-adv-x="895" vert-adv-y="1000"  />

      
      <glyph glyph-name="uniA7B4" unicode="&#xA7B4;" d="M717 395Q770 383 805 357.50Q840 332 857.50 295.50Q875 259 875 213Q875 152 847.50 103.50Q820 55 764 27.50Q708 0 625 0L295 0L295-165L65-165L65 750L605 750Q709 750 767 701.50Q825 653 825 567Q825 533 814.50 500.50Q804 468 780 441Q756 414 717 395M589 531Q589 557 570.50 574.50Q552 592 518 592L295 592L295 462L516 462Q547 462 568 481Q589 500 589 531M295 158L556 158Q595 158 617 177.50Q639 197 639 232Q639 265 616.50 286.50Q594 308 549 308L295 308L295 158Z"  horiz-adv-x="905" vert-adv-y="1000"  />

      
      <glyph glyph-name="uni0181" unicode="&#x0181;" d="M223 750L810 750Q914 750 972.50 701.50Q1031 653 1031 567Q1031 519 1009 476Q987 433 938 403.50Q889 374 807 366L825 408Q911 406 968 381.50Q1025 357 1053 314Q1081 271 1081 213Q1081 152 1053.50 103.50Q1026 55 970 27.50Q914 0 831 0L259 0L317 385L267 702L349 581L276 581Q243 581 226.50 564Q210 547 210 509Q210 479 215.50 452Q221 425 227 405L58 405Q43 436 30 476Q17 516 17 564Q17 649 68.50 699.50Q120 750 223 750M488 52L399 158L762 158Q801 158 823 177.50Q845 197 845 232Q845 265 822 286.50Q799 308 755 308L453 308L453 462L722 462Q753 462 774 481Q795 500 795 531Q795 557 776.50 574.50Q758 592 724 592L400 592L488 698L539 385L488 52Z"  horiz-adv-x="1111" vert-adv-y="1000"  />

      
      <glyph glyph-name="uni1E06" unicode="&#x1E06;" d="M591 366L610 408Q695 406 752 381.50Q809 357 837 314Q865 271 865 213Q865 152 837.50 103.50Q810 55 754 27.50Q698 0 615 0L44 0L101 385L44 750L594 750Q698 750 756.50 701.50Q815 653 815 567Q815 519 793.50 476Q772 433 722.50 403.50Q673 374 591 366M272 52L183 158L546 158Q585 158 607 177.50Q629 197 629 232Q629 265 606 286.50Q583 308 539 308L237 308L237 462L506 462Q537 462 558 481Q579 500 579 531Q579 557 560.50 574.50Q542 592 508 592L184 592L272 698L323 385L272 52M216-199L216-64L721-64L721-199L216-199Z"  horiz-adv-x="895" vert-adv-y="1000"  />

      
      <glyph glyph-name="uni0243" unicode="&#x0243;" d="M19 292L517 292L517 172L19 172L19 292M633 366L652 408Q738 406 795 381.50Q852 357 880 314Q908 271 908 213Q908 152 880 103.50Q852 55 796.50 27.50Q741 0 657 0L86 0L143 385L86 750L637 750Q741 750 799.50 701.50Q858 653 858 567Q858 519 836 476Q814 433 765 403.50Q716 374 633 366M314 52L226 157L588 157Q627 157 649 177Q671 197 671 232Q671 265 648.50 286.50Q626 308 581 308L279 308L279 462L548 462Q579 462 600 480.50Q621 499 621 531Q621 558 602.50 575.50Q584 593 550 593L226 593L314 698L366 385L314 52Z"  horiz-adv-x="937" vert-adv-y="1000"  />

      
      <glyph glyph-name="uni43" unicode="&#x43;" d="M913 319Q901 219 843.50 143Q786 67 691.50 25Q597-17 475-17Q343-17 244 32Q145 81 90 169Q35 257 35 375Q35 493 90 581Q145 669 244 718Q343 767 475 767Q597 767 691.50 725Q786 683 843.50 607.50Q901 532 913 431L679 431Q669 474 642.50 504.50Q616 535 574 551.50Q532 568 475 568Q411 568 365 545Q319 522 294 478.50Q269 435 269 375Q269 315 294 272Q319 229 365 205.50Q411 182 475 182Q532 182 574 197.50Q616 213 642.50 244Q669 275 679 319L913 319Z"  horiz-adv-x="942" vert-adv-y="1000"  />

      
      <glyph glyph-name="uni0106" unicode="&#x0106;" d="M913 319Q901 219 843.50 143Q786 67 691.50 25Q597-17 475-17Q343-17 244 32Q145 81 90 169Q35 257 35 375Q35 493 90 581Q145 669 244 718Q343 767 475 767Q597 767 691.50 725Q786 683 843.50 607.50Q901 532 913 431L679 431Q669 474 642.50 504.50Q616 535 574 551.50Q532 568 475 568Q411 568 365 545Q319 522 294 478.50Q269 435 269 375Q269 315 294 272Q319 229 365 205.50Q411 182 475 182Q532 182 574 197.50Q616 213 642.50 244Q669 275 679 319L913 319M486 978L744 978L567 804L339 804L486 978Z"  horiz-adv-x="942" vert-adv-y="1000"  />

      
      <glyph glyph-name="uni010C" unicode="&#x010C;" d="M913 319Q901 219 843.50 143Q786 67 691.50 25Q597-17 475-17Q343-17 244 32Q145 81 90 169Q35 257 35 375Q35 493 90 581Q145 669 244 718Q343 767 475 767Q597 767 691.50 725Q786 683 843.50 607.50Q901 532 913 431L679 431Q669 474 642.50 504.50Q616 535 574 551.50Q532 568 475 568Q411 568 365 545Q319 522 294 478.50Q269 435 269 375Q269 315 294 272Q319 229 365 205.50Q411 182 475 182Q532 182 574 197.50Q616 213 642.50 244Q669 275 679 319L913 319M593 803L354 803L201 977L384 977L527 873L420 873L563 977L746 977L593 803Z"  horiz-adv-x="942" vert-adv-y="1000"  />

      
      <glyph glyph-name="unic7" unicode="&#xc7;" d="M913 319Q901 219 843.50 143Q786 67 691.50 25Q597-17 475-17Q343-17 244 32Q145 81 90 169Q35 257 35 375Q35 493 90 581Q145 669 244 718Q343 767 475 767Q597 767 691.50 725Q786 683 843.50 607.50Q901 532 913 431L679 431Q669 474 642.50 504.50Q616 535 574 551.50Q532 568 475 568Q411 568 365 545Q319 522 294 478.50Q269 435 269 375Q269 315 294 272Q319 229 365 205.50Q411 182 475 182Q532 182 574 197.50Q616 213 642.50 244Q669 275 679 319L913 319M429 22L536 22L485-69L428-65Q454-53 483-45.50Q512-38 545-38Q619-38 657.50-65Q696-92 696-140Q696-191 645-224Q594-257 495-257Q408-257 351-227Q294-197 279-142L423-142Q429-152 446-159.50Q463-167 495-167Q527-167 542.50-158Q558-149 558-135Q558-122 545-113.50Q532-105 505-105Q490-105 475.50-107Q461-109 449-114L340-114L429 22Z"  horiz-adv-x="942" vert-adv-y="1000"  />

      
      <glyph glyph-name="uni1E08" unicode="&#x1E08;" d="M913 319Q901 219 843.50 143Q786 67 691.50 25Q597-17 475-17Q343-17 244 32Q145 81 90 169Q35 257 35 375Q35 493 90 581Q145 669 244 718Q343 767 475 767Q597 767 691.50 725Q786 683 843.50 607.50Q901 532 913 431L679 431Q669 474 642.50 504.50Q616 535 574 551.50Q532 568 475 568Q411 568 365 545Q319 522 294 478.50Q269 435 269 375Q269 315 294 272Q319 229 365 205.50Q411 182 475 182Q532 182 574 197.50Q616 213 642.50 244Q669 275 679 319L913 319M429 22L536 22L485-69L428-65Q454-53 483-45.50Q512-38 545-38Q619-38 657.50-65Q696-92 696-140Q696-191 645-224Q594-257 495-257Q408-257 351-227Q294-197 279-142L423-142Q429-152 446-159.50Q463-167 495-167Q527-167 542.50-158Q558-149 558-135Q558-122 545-113.50Q532-105 505-105Q490-105 475.50-107Q461-109 449-114L340-114L429 22M486 978L744 978L567 804L339 804L486 978Z"  horiz-adv-x="942" vert-adv-y="1000"  />

      
      <glyph glyph-name="uni0108" unicode="&#x0108;" d="M913 319Q901 219 843.50 143Q786 67 691.50 25Q597-17 475-17Q343-17 244 32Q145 81 90 169Q35 257 35 375Q35 493 90 581Q145 669 244 718Q343 767 475 767Q597 767 691.50 725Q786 683 843.50 607.50Q901 532 913 431L679 431Q669 474 642.50 504.50Q616 535 574 551.50Q532 568 475 568Q411 568 365 545Q319 522 294 478.50Q269 435 269 375Q269 315 294 272Q319 229 365 205.50Q411 182 475 182Q532 182 574 197.50Q616 213 642.50 244Q669 275 679 319L913 319M354 978L593 978L746 804L562 804L420 908L527 908L384 804L200 804L354 978Z"  horiz-adv-x="942" vert-adv-y="1000"  />

      
      <glyph glyph-name="uni010A" unicode="&#x010A;" d="M913 319Q901 219 843.50 143Q786 67 691.50 25Q597-17 475-17Q343-17 244 32Q145 81 90 169Q35 257 35 375Q35 493 90 581Q145 669 244 718Q343 767 475 767Q597 767 691.50 725Q786 683 843.50 607.50Q901 532 913 431L679 431Q669 474 642.50 504.50Q616 535 574 551.50Q532 568 475 568Q411 568 365 545Q319 522 294 478.50Q269 435 269 375Q269 315 294 272Q319 229 365 205.50Q411 182 475 182Q532 182 574 197.50Q616 213 642.50 244Q669 275 679 319L913 319M473 799Q415 799 379 827.50Q343 856 343 906Q343 956 379 985Q415 1014 473 1014Q533 1014 568.50 985Q604 956 604 906Q604 856 568.50 827.50Q533 799 473 799Z"  horiz-adv-x="942" vert-adv-y="1000"  />

      
      <glyph glyph-name="uniA7B3" unicode="&#xA7B3;" d="M494 234L494 387L851-165L604-165L369 219L468 219L231-165L-13-165L346 386L346 236L7 750L258 750L472 403L373 403L584 750L831 750L494 234Z"  horiz-adv-x="840" vert-adv-y="1000"  />

      
      <glyph glyph-name="uni0187" unicode="&#x0187;" d="M468 767Q607 767 694 706.50Q781 646 823 541L755 565Q732 602 711 646.50Q690 691 690 735Q690 781 711 819.50Q732 858 777 881.50Q822 905 892 905Q928 905 963 900Q998 895 1028 885L1028 715Q1010 720 991 724.50Q972 729 950 729Q904 729 882.50 709.50Q861 690 861 654Q861 636 866 614.50Q871 593 878 569Q884 545 895.50 508.50Q907 472 913 431L680 431Q670 474 643.50 504.50Q617 535 574.50 551.50Q532 568 476 568Q412 568 365.50 545Q319 522 294.50 478.50Q270 435 270 375Q270 315 294.50 272Q319 229 365.50 205.50Q412 182 476 182Q532 182 574.50 197.50Q617 213 643.50 244Q670 275 680 319L913 319Q902 219 844 143Q786 67 692 25Q598-17 476-17Q343-17 244 32Q145 81 90 169Q35 257 35 375Q35 493 90 581Q145 669 243 718Q341 767 468 767Z"  horiz-adv-x="1009" vert-adv-y="1000"  />

      
      <glyph glyph-name="uni023B" unicode="&#x023B;" d="M569 872L752 872L363-122L180-122L569 872M913 319Q902 219 844 143Q786 67 692 25Q598-17 476-17Q343-17 244 32Q145 81 90 169Q35 257 35 375Q35 493 90 581Q145 669 244 718Q343 767 476 767Q598 767 692 725Q786 683 844 607.50Q902 532 913 431L680 431Q670 474 643.50 504.50Q617 535 574.50 551.50Q532 568 476 568Q412 568 365.50 545Q319 522 294.50 478.50Q270 435 270 375Q270 315 294.50 272Q319 229 365.50 205.50Q412 182 476 182Q532 182 574.50 197.50Q617 213 643.50 244Q670 275 680 319L913 319Z"  horiz-adv-x="942" vert-adv-y="1000"  />

      
      <glyph glyph-name="uni44" unicode="&#x44;" d="M451 750Q586 750 687.50 703.50Q789 657 845.50 573Q902 489 902 375Q902 262 845.50 177.50Q789 93 687.50 46.50Q586 0 451 0L65 0L65 750L451 750M296 101L189 207L469 207Q530 207 574.50 227.50Q619 248 643 286Q667 324 667 375Q667 427 643 464.50Q619 502 574.50 522.50Q530 543 469 543L189 543L296 649L296 101Z"  horiz-adv-x="936" vert-adv-y="1000"  />

      
      <glyph glyph-name="uni01F1" unicode="&#x01F1;" d="M451 750Q586 750 687.50 703.50Q789 657 845.50 573Q902 489 902 375Q902 262 845.50 177.50Q789 93 687.50 46.50Q586 0 451 0L65 0L65 750L451 750M296 101L189 207L469 207Q530 207 574.50 227.50Q619 248 643 286Q667 324 667 375Q667 427 643 464.50Q619 502 574.50 522.50Q530 543 469 543L189 543L296 649L296 101M960 0L960 167L1430 615L1603 570L964 570L964 751L1691 751L1691 584L1222 135L1075 180L1694 180L1694 0L960 0Z"  horiz-adv-x="1737" vert-adv-y="1000"  />

      
      <glyph glyph-name="uni01C4" unicode="&#x01C4;" d="M451 750Q586 750 687.50 703.50Q789 657 845.50 573Q902 489 902 375Q902 262 845.50 177.50Q789 93 687.50 46.50Q586 0 451 0L65 0L65 750L451 750M296 101L189 207L469 207Q530 207 574.50 227.50Q619 248 643 286Q667 324 667 375Q667 427 643 464.50Q619 502 574.50 522.50Q530 543 469 543L189 543L296 649L296 101M960 0L960 167L1430 615L1603 570L964 570L964 751L1691 751L1691 584L1222 135L1075 180L1694 180L1694 0L960 0M1447 803L1208 803L1055 977L1238 977L1381 873L1274 873L1417 977L1600 977L1447 803Z"  horiz-adv-x="1737" vert-adv-y="1000"  />

      
      <glyph glyph-name="uni0189" unicode="&#x0189;" d="M28 451L476 451L476 301L28 301L28 451M474 750Q609 750 710 703.50Q811 657 867.50 573Q924 489 924 375Q924 262 867.50 177.50Q811 93 710 46.50Q609 0 474 0L87 0L87 750L474 750M319 101L211 207L491 207Q553 207 597.50 227.50Q642 248 665.50 286Q689 324 689 375Q689 427 665.50 464.50Q642 502 597.50 522.50Q553 543 491 543L211 543L319 649L319 101Z"  horiz-adv-x="959" vert-adv-y="1000"  />

      
      <glyph glyph-name="uni010E" unicode="&#x010E;" d="M451 750Q586 750 687.50 703.50Q789 657 845.50 573Q902 489 902 375Q902 262 845.50 177.50Q789 93 687.50 46.50Q586 0 451 0L65 0L65 750L451 750M296 101L189 207L469 207Q530 207 574.50 227.50Q619 248 643 286Q667 324 667 375Q667 427 643 464.50Q619 502 574.50 522.50Q530 543 469 543L189 543L296 649L296 101M562 803L323 803L169 977L353 977L496 873L389 873L531 977L715 977L562 803Z"  horiz-adv-x="936" vert-adv-y="1000"  />

      
      <glyph glyph-name="uni1E10" unicode="&#x1E10;" d="M451 750Q586 750 687.50 703.50Q789 657 845.50 573Q902 489 902 375Q902 262 845.50 177.50Q789 93 687.50 46.50Q586 0 451 0L65 0L65 750L451 750M296 101L189 207L469 207Q530 207 574.50 227.50Q619 248 643 286Q667 324 667 375Q667 427 643 464.50Q619 502 574.50 522.50Q530 543 469 543L189 543L296 649L296 101M336-324L439-162L448-225Q394-225 361-200.50Q328-176 328-134Q328-91 361-67Q394-43 448-43Q502-43 534.50-67Q567-91 567-135Q567-164 551-189Q535-214 501-254L442-324L336-324Z"  horiz-adv-x="936" vert-adv-y="1000"  />

      
      <glyph glyph-name="uni1E12" unicode="&#x1E12;" d="M451 750Q586 750 687.50 703.50Q789 657 845.50 573Q902 489 902 375Q902 262 845.50 177.50Q789 93 687.50 46.50Q586 0 451 0L65 0L65 750L451 750M296 101L189 207L469 207Q530 207 574.50 227.50Q619 248 643 286Q667 324 667 375Q667 427 643 464.50Q619 502 574.50 522.50Q530 543 469 543L189 543L296 649L296 101M332-42L565-42L708-236L530-236L395-95L502-95L368-236L189-236L332-42Z"  horiz-adv-x="936" vert-adv-y="1000"  />

      
      <glyph glyph-name="uni0110" unicode="&#x0110;" d="M28 451L476 451L476 301L28 301L28 451M474 750Q609 750 710 703.50Q811 657 867.50 573Q924 489 924 375Q924 262 867.50 177.50Q811 93 710 46.50Q609 0 474 0L87 0L87 750L474 750M319 101L211 207L491 207Q553 207 597.50 227.50Q642 248 665.50 286Q689 324 689 375Q689 427 665.50 464.50Q642 502 597.50 522.50Q553 543 491 543L211 543L319 649L319 101Z"  horiz-adv-x="959" vert-adv-y="1000"  />

      
      <glyph glyph-name="uni1E0A" unicode="&#x1E0A;" d="M451 750Q586 750 687.50 703.50Q789 657 845.50 573Q902 489 902 375Q902 262 845.50 177.50Q789 93 687.50 46.50Q586 0 451 0L65 0L65 750L451 750M296 101L189 207L469 207Q530 207 574.50 227.50Q619 248 643 286Q667 324 667 375Q667 427 643 464.50Q619 502 574.50 522.50Q530 543 469 543L189 543L296 649L296 101M442 799Q384 799 348 827.50Q312 856 312 906Q312 956 348 985Q384 1014 442 1014Q502 1014 537.50 985Q573 956 573 906Q573 856 537.50 827.50Q502 799 442 799Z"  horiz-adv-x="936" vert-adv-y="1000"  />

      
      <glyph glyph-name="uni1E0C" unicode="&#x1E0C;" d="M451 750Q586 750 687.50 703.50Q789 657 845.50 573Q902 489 902 375Q902 262 845.50 177.50Q789 93 687.50 46.50Q586 0 451 0L65 0L65 750L451 750M296 101L189 207L469 207Q530 207 574.50 227.50Q619 248 643 286Q667 324 667 375Q667 427 643 464.50Q619 502 574.50 522.50Q530 543 469 543L189 543L296 649L296 101M448-260Q390-260 354-231Q318-202 318-153Q318-103 354-74Q390-45 448-45Q508-45 543.50-74Q579-103 579-153Q579-202 543.50-231Q508-260 448-260Z"  horiz-adv-x="936" vert-adv-y="1000"  />

      
      <glyph glyph-name="uni018A" unicode="&#x018A;" d="M239 750L699 750Q834 750 935 703.50Q1036 657 1092.50 573Q1149 489 1149 375Q1149 262 1092.50 177.50Q1036 93 935 46.50Q834 0 699 0L312 0L312 646L377 556L281 556Q248 556 230.50 541Q213 526 213 489Q213 466 217.50 442.50Q222 419 227 405L58 405Q43 436 30 474.50Q17 513 17 562Q17 648 69.50 699Q122 750 239 750M544 101L436 207L716 207Q778 207 822.50 227.50Q867 248 890.50 286Q914 324 914 375Q914 427 890.50 464.50Q867 502 822.50 522.50Q778 543 716 543L442 543L544 645L544 101Z"  horiz-adv-x="1184" vert-adv-y="1000"  />

      
      <glyph glyph-name="uni1E0E" unicode="&#x1E0E;" d="M451 750Q586 750 687.50 703.50Q789 657 845.50 573Q902 489 902 375Q902 262 845.50 177.50Q789 93 687.50 46.50Q586 0 451 0L65 0L65 750L451 750M296 101L189 207L469 207Q530 207 574.50 227.50Q619 248 643 286Q667 324 667 375Q667 427 643 464.50Q619 502 574.50 522.50Q530 543 469 543L189 543L296 649L296 101M211-199L211-64L716-64L716-199L211-199Z"  horiz-adv-x="936" vert-adv-y="1000"  />

      
      <glyph glyph-name="uni01F2" unicode="&#x01F2;" d="M451 750Q586 750 687.50 703.50Q789 657 845.50 573Q902 489 902 375Q902 262 845.50 177.50Q789 93 687.50 46.50Q586 0 451 0L65 0L65 750L451 750M296 101L189 207L469 207Q530 207 574.50 227.50Q619 248 643 286Q667 324 667 375Q667 427 643 464.50Q619 502 574.50 522.50Q530 543 469 543L189 543L296 649L296 101M961 0L961 158L1339 436L1503 411L963 411L963 573L1590 573L1590 415L1212 137L1073 162L1592 162L1592 0L961 0Z"  horiz-adv-x="1630" vert-adv-y="1000"  />

      
      <glyph glyph-name="uni01C5" unicode="&#x01C5;" d="M451 750Q586 750 687.50 703.50Q789 657 845.50 573Q902 489 902 375Q902 262 845.50 177.50Q789 93 687.50 46.50Q586 0 451 0L65 0L65 750L451 750M296 101L189 207L469 207Q530 207 574.50 227.50Q619 248 643 286Q667 324 667 375Q667 427 643 464.50Q619 502 574.50 522.50Q530 543 469 543L189 543L296 649L296 101M960 0L960 158L1338 436L1502 411L963 411L963 573L1589 573L1589 415L1211 137L1073 162L1591 162L1591 0L960 0M1393 627L1160 627L1017 821L1195 821L1330 680L1223 680L1357 821L1536 821L1393 627Z"  horiz-adv-x="1630" vert-adv-y="1000"  />

      
      <glyph glyph-name="unid0" unicode="&#xd0;" d="M28 451L476 451L476 301L28 301L28 451M474 750Q609 750 710 703.50Q811 657 867.50 573Q924 489 924 375Q924 262 867.50 177.50Q811 93 710 46.50Q609 0 474 0L87 0L87 750L474 750M319 101L211 207L491 207Q553 207 597.50 227.50Q642 248 665.50 286Q689 324 689 375Q689 427 665.50 464.50Q642 502 597.50 522.50Q553 543 491 543L211 543L319 649L319 101Z"  horiz-adv-x="959" vert-adv-y="1000"  />

      
      <glyph glyph-name="uni45" unicode="&#x45;" d="M720 457L720 293L163 293L163 457L720 457M322 375L275 85L184 186L755 186L755 0L44 0L100 375L44 750L750 750L750 564L184 564L275 665L322 375Z"  horiz-adv-x="803" vert-adv-y="1000"  />

      
      <glyph glyph-name="unic9" unicode="&#xc9;" d="M720 457L720 293L163 293L163 457L720 457M322 375L275 85L184 186L755 186L755 0L44 0L100 375L44 750L750 750L750 564L184 564L275 665L322 375M417 978L675 978L498 804L270 804L417 978Z"  horiz-adv-x="803" vert-adv-y="1000"  />

      
      <glyph glyph-name="uni0114" unicode="&#x0114;" d="M720 457L720 293L163 293L163 457L720 457M322 375L275 85L184 186L755 186L755 0L44 0L100 375L44 750L750 750L750 564L184 564L275 665L322 375M137 983L310 983Q325 958 348.50 945.50Q372 933 404 933Q437 933 460.50 945.50Q484 958 499 983L672 983Q645 887 574.50 841Q504 795 404 795Q306 795 235 841Q164 887 137 983Z"  horiz-adv-x="803" vert-adv-y="1000"  />

      
      <glyph glyph-name="uni011A" unicode="&#x011A;" d="M720 457L720 293L163 293L163 457L720 457M322 375L275 85L184 186L755 186L755 0L44 0L100 375L44 750L750 750L750 564L184 564L275 665L322 375M524 803L285 803L132 977L315 977L458 873L351 873L494 977L677 977L524 803Z"  horiz-adv-x="803" vert-adv-y="1000"  />

      
      <glyph glyph-name="uni0228" unicode="&#x0228;" d="M720 457L720 293L163 293L163 457L720 457M322 375L275 85L184 186L755 186L755 0L44 0L100 375L44 750L750 750L750 564L184 564L275 665L322 375M373 22L480 22L429-69L372-65Q398-53 427-45.50Q456-38 489-38Q563-38 601.50-65Q640-92 640-140Q640-191 589-224Q538-257 439-257Q352-257 295-227Q238-197 223-142L367-142Q373-152 390-159.50Q407-167 439-167Q471-167 486.50-158Q502-149 502-135Q502-122 489-113.50Q476-105 449-105Q434-105 419.50-107Q405-109 393-114L284-114L373 22Z"  horiz-adv-x="803" vert-adv-y="1000"  />

      
      <glyph glyph-name="uni1E1C" unicode="&#x1E1C;" d="M720 457L720 293L163 293L163 457L720 457M322 375L275 85L184 186L755 186L755 0L44 0L100 375L44 750L750 750L750 564L184 564L275 665L322 375M373 22L480 22L429-69L372-65Q398-53 427-45.50Q456-38 489-38Q563-38 601.50-65Q640-92 640-140Q640-191 589-224Q538-257 439-257Q352-257 295-227Q238-197 223-142L367-142Q373-152 390-159.50Q407-167 439-167Q471-167 486.50-158Q502-149 502-135Q502-122 489-113.50Q476-105 449-105Q434-105 419.50-107Q405-109 393-114L284-114L373 22M137 983L310 983Q325 958 348.50 945.50Q372 933 404 933Q437 933 460.50 945.50Q484 958 499 983L672 983Q645 887 574.50 841Q504 795 404 795Q306 795 235 841Q164 887 137 983Z"  horiz-adv-x="803" vert-adv-y="1000"  />

      
      <glyph glyph-name="unica" unicode="&#xca;" d="M720 457L720 293L163 293L163 457L720 457M322 375L275 85L184 186L755 186L755 0L44 0L100 375L44 750L750 750L750 564L184 564L275 665L322 375M285 978L524 978L677 804L493 804L351 908L458 908L315 804L131 804L285 978Z"  horiz-adv-x="803" vert-adv-y="1000"  />

      
      <glyph glyph-name="uni1EBE" unicode="&#x1EBE;" d="M720 457L720 293L163 293L163 457L720 457M322 375L275 85L184 186L755 186L755 0L44 0L100 375L44 750L750 750L750 564L184 564L275 665L322 375M679 1106L884 1106L757 940L583 940L679 1106M285 978L524 978L678 804L494 804L351 908L458 908L315 804L132 804L285 978Z"  horiz-adv-x="803" vert-adv-y="1000"  />

      
      <glyph glyph-name="uni1E18" unicode="&#x1E18;" d="M720 457L720 293L163 293L163 457L720 457M322 375L275 85L184 186L755 186L755 0L44 0L100 375L44 750L750 750L750 564L184 564L275 665L322 375M301-42L534-42L677-236L499-236L364-95L471-95L337-236L158-236L301-42Z"  horiz-adv-x="803" vert-adv-y="1000"  />

      
      <glyph glyph-name="uni1EC6" unicode="&#x1EC6;" d="M720 457L720 293L163 293L163 457L720 457M322 375L275 85L184 186L755 186L755 0L44 0L100 375L44 750L750 750L750 564L184 564L275 665L322 375M417-260Q359-260 323-231Q287-202 287-153Q287-103 323-74Q359-45 417-45Q477-45 512.50-74Q548-103 548-153Q548-202 512.50-231Q477-260 417-260M285 978L524 978L677 804L493 804L351 908L458 908L315 804L131 804L285 978Z"  horiz-adv-x="803" vert-adv-y="1000"  />

      
      <glyph glyph-name="uni1EC0" unicode="&#x1EC0;" d="M720 457L720 293L163 293L163 457L720 457M322 375L275 85L184 186L755 186L755 0L44 0L100 375L44 750L750 750L750 564L184 564L275 665L322 375M685 1106L781 940L607 940L480 1106L685 1106M285 978L524 978L678 804L494 804L351 908L458 908L315 804L132 804L285 978Z"  horiz-adv-x="803" vert-adv-y="1000"  />

      
      <glyph glyph-name="uni1EC2" unicode="&#x1EC2;" d="M720 457L720 293L163 293L163 457L720 457M322 375L275 85L184 186L755 186L755 0L44 0L100 375L44 750L750 750L750 564L184 564L275 665L322 375M630 918L590 971Q618 981 631 992Q644 1003 644 1015Q644 1042 590 1042Q577 1042 561 1040.50Q545 1039 528 1035L528 1149Q548 1155 581 1159.50Q614 1164 651 1164Q734 1164 780 1137Q826 1110 826 1061Q826 1012 777 975.50Q728 939 630 918M285 978L524 978L678 804L494 804L351 908L458 908L315 804L132 804L285 978Z"  horiz-adv-x="803" vert-adv-y="1000"  />

      
      <glyph glyph-name="uni1EC4" unicode="&#x1EC4;" d="M720 457L720 293L163 293L163 457L720 457M322 375L275 85L184 186L755 186L755 0L44 0L100 375L44 750L750 750L750 564L184 564L275 665L322 375M157 1017Q162 1096 199 1145Q236 1194 305 1194Q336 1194 360 1186.50Q384 1179 402 1169.50Q420 1160 436 1152.50Q452 1145 466 1145Q485 1145 496 1157Q507 1169 511 1192L648 1192Q644 1110 606.50 1062.50Q569 1015 500 1015Q469 1015 445 1023Q421 1031 402.50 1040.50Q384 1050 368.50 1057Q353 1064 339 1064Q319 1064 308.50 1052Q298 1040 294 1017L157 1017M285 978L524 978L677 804L493 804L351 908L458 908L315 804L131 804L285 978Z"  horiz-adv-x="803" vert-adv-y="1000"  />

      
      <glyph glyph-name="uni0204" unicode="&#x0204;" d="M720 457L720 293L163 293L163 457L720 457M322 375L275 85L184 186L755 186L755 0L44 0L100 375L44 750L750 750L750 564L184 564L275 665L322 375M517 978L642 804L444 804L300 978L517 978M240 978L364 804L166 804L22 978L240 978Z"  horiz-adv-x="803" vert-adv-y="1000"  />

      
      <glyph glyph-name="unicb" unicode="&#xcb;" d="M720 457L720 293L163 293L163 457L720 457M322 375L275 85L184 186L755 186L755 0L44 0L100 375L44 750L750 750L750 564L184 564L275 665L322 375M247 799Q192 799 159 826Q126 853 126 902Q126 948 159 975Q192 1002 247 1002Q302 1002 335 975Q368 948 368 902Q368 853 335 826Q302 799 247 799M562 799Q507 799 474 826Q441 853 441 902Q441 948 474 975Q507 1002 562 1002Q617 1002 650 975Q683 948 683 902Q683 853 650 826Q617 799 562 799Z"  horiz-adv-x="803" vert-adv-y="1000"  />

      
      <glyph glyph-name="uni0116" unicode="&#x0116;" d="M720 457L720 293L163 293L163 457L720 457M322 375L275 85L184 186L755 186L755 0L44 0L100 375L44 750L750 750L750 564L184 564L275 665L322 375M404 799Q346 799 310 827.50Q274 856 274 906Q274 956 310 985Q346 1014 404 1014Q464 1014 499.50 985Q535 956 535 906Q535 856 499.50 827.50Q464 799 404 799Z"  horiz-adv-x="803" vert-adv-y="1000"  />

      
      <glyph glyph-name="uni1EB8" unicode="&#x1EB8;" d="M720 457L720 293L163 293L163 457L720 457M322 375L275 85L184 186L755 186L755 0L44 0L100 375L44 750L750 750L750 564L184 564L275 665L322 375M417-260Q359-260 323-231Q287-202 287-153Q287-103 323-74Q359-45 417-45Q477-45 512.50-74Q548-103 548-153Q548-202 512.50-231Q477-260 417-260Z"  horiz-adv-x="803" vert-adv-y="1000"  />

      
      <glyph glyph-name="unic8" unicode="&#xc8;" d="M720 457L720 293L163 293L163 457L720 457M322 375L275 85L184 186L755 186L755 0L44 0L100 375L44 750L750 750L750 564L184 564L275 665L322 375M382 978L529 804L301 804L124 978L382 978Z"  horiz-adv-x="803" vert-adv-y="1000"  />

      
      <glyph glyph-name="uni1EBA" unicode="&#x1EBA;" d="M720 457L720 293L163 293L163 457L720 457M322 375L275 85L184 186L755 186L755 0L44 0L100 375L44 750L750 750L750 564L184 564L275 665L322 375M356 790L316 857Q363 865 382 875.50Q401 886 401 897Q401 908 387 913.50Q373 919 344 919Q321 919 302 916.50Q283 914 261 910L261 1021Q282 1028 321 1034Q360 1040 400 1040Q494 1040 543 1014.50Q592 989 592 931Q592 879 538 844.50Q484 810 356 790Z"  horiz-adv-x="803" vert-adv-y="1000"  />

      
      <glyph glyph-name="uni0206" unicode="&#x0206;" d="M720 457L720 293L163 293L163 457L720 457M322 375L275 85L184 186L755 186L755 0L44 0L100 375L44 750L750 750L750 564L184 564L275 665L322 375M672 799L499 799Q484 823 460.50 836Q437 849 405 849Q372 849 348.50 836Q325 823 310 799L137 799Q164 894 235 940Q306 986 405 986Q504 986 575 940Q646 894 672 799Z"  horiz-adv-x="803" vert-adv-y="1000"  />

      
      <glyph glyph-name="uni0112" unicode="&#x0112;" d="M720 457L720 293L163 293L163 457L720 457M322 375L275 85L184 186L755 186L755 0L44 0L100 375L44 750L750 750L750 564L184 564L275 665L322 375M151 822L151 956L657 956L657 822L151 822Z"  horiz-adv-x="803" vert-adv-y="1000"  />

      
      <glyph glyph-name="uni1E16" unicode="&#x1E16;" d="M720 457L720 293L163 293L163 457L720 457M322 375L275 85L184 186L755 186L755 0L44 0L100 375L44 750L750 750L750 564L184 564L275 665L322 375M151 822L151 956L657 956L657 822L151 822M417 1190L675 1190L498 1016L270 1016L417 1190Z"  horiz-adv-x="803" vert-adv-y="1000"  />

      
      <glyph glyph-name="uni1E14" unicode="&#x1E14;" d="M720 457L720 293L163 293L163 457L720 457M322 375L275 85L184 186L755 186L755 0L44 0L100 375L44 750L750 750L750 564L184 564L275 665L322 375M152 822L152 956L657 956L657 822L152 822M382 1190L529 1016L301 1016L124 1190L382 1190Z"  horiz-adv-x="803" vert-adv-y="1000"  />

      
      <glyph glyph-name="uni0118" unicode="&#x0118;" d="M720 457L720 293L163 293L163 457L720 457M322 375L275 85L184 186L755 186L755 0L44 0L100 375L44 750L750 750L750 564L184 564L275 665L322 375M661 21L732 12L732 0L755 0Q718-9 691-20.50Q664-32 650-43Q636-54 636-66Q636-93 697-93Q714-93 728-91Q742-89 755-86L755-202Q742-207 709-212Q676-217 640-217Q566-217 521-190Q476-163 476-120Q476-70 522.50-35.50Q569-1 661 21Z"  horiz-adv-x="803" vert-adv-y="1000"  />

      
      <glyph glyph-name="uni0190" unicode="&#x0190;" d="M806 504L575 504Q568 545 530.50 567.50Q493 590 422 590Q358 590 324 572.50Q290 555 290 521Q290 491 318 473Q346 455 421 455L547 455L547 302L421 302Q364 302 332.50 295Q301 288 289 273.50Q277 259 277 237Q277 200 316 180Q355 160 426 160Q507 160 547.50 183.50Q588 207 594 250L826 250Q823 169 773 108.50Q723 48 634.50 15.50Q546-17 426-17Q304-17 217.50 13.50Q131 44 86 97.50Q41 151 41 219Q41 283 79 323.50Q117 364 189 381.50Q261 399 360 394L360 373Q252 372 185 396.50Q118 421 87.50 463Q57 505 57 555Q57 619 101 666.50Q145 714 224.50 740.50Q304 767 409 767Q536 767 623 731Q710 695 756.50 635.50Q803 576 806 504Z"  horiz-adv-x="850" vert-adv-y="1000"  />

      
      <glyph glyph-name="uni018E" unicode="&#x018E;" d="M83 457L640 457L640 293L83 293L83 457M481 375L528 665L619 564L53 564L53 750L759 750L703 375L759 0L48 0L48 186L619 186L528 85L481 375Z"  horiz-adv-x="803" vert-adv-y="1000"  />

      
      <glyph glyph-name="uni01A9" unicode="&#x01A9;" d="M42 0L42 167L379 412L379 339L52 584L52 750L759 750L759 569L141 569L220 686L537 449L537 303L261 102L157 181L774 181L774 0L42 0Z"  horiz-adv-x="809" vert-adv-y="1000"  />

      
      <glyph glyph-name="uni0246" unicode="&#x0246;" d="M538 872L720 872L438-122L256-122L538 872M720 457L720 293L163 293L163 457L720 457M322 375L275 85L184 186L755 186L755 0L44 0L100 375L44 750L750 750L750 564L184 564L275 665L322 375Z"  horiz-adv-x="803" vert-adv-y="1000"  />

      
      <glyph glyph-name="uni1EBC" unicode="&#x1EBC;" d="M720 457L720 293L163 293L163 457L720 457M322 375L275 85L184 186L755 186L755 0L44 0L100 375L44 750L750 750L750 564L184 564L275 665L322 375M120 808Q132 893 176.50 941Q221 989 308 989Q336 989 361.50 982Q387 975 410 966.50Q433 958 453 951Q473 944 490 944Q511 944 524.50 954Q538 964 542 983L688 983Q676 900 632 851Q588 802 501 802Q473 802 447.50 809Q422 816 399 825Q376 834 355.50 841Q335 848 318 848Q298 848 284 838Q270 828 267 808L120 808Z"  horiz-adv-x="803" vert-adv-y="1000"  />

      
      <glyph glyph-name="uni1E1A" unicode="&#x1E1A;" d="M720 457L720 293L163 293L163 457L720 457M322 375L275 85L184 186L755 186L755 0L44 0L100 375L44 750L750 750L750 564L184 564L275 665L322 375M159-233Q164-143 201-90Q238-37 313-37Q340-37 366-44.50Q392-52 414.50-62Q437-72 457-79.50Q477-87 493-87Q513-87 527-74.50Q541-62 545-39L675-39Q671-129 633.50-182Q596-235 521-235Q494-235 468-227Q442-219 419.50-209.50Q397-200 377.50-192.50Q358-185 342-185Q321-185 307.50-197.50Q294-210 289-233L159-233Z"  horiz-adv-x="803" vert-adv-y="1000"  />

      
      <glyph glyph-name="uni018F" unicode="&#x018F;" d="M469 768Q568 768 648 739.50Q728 711 786 659Q844 607 875 534.50Q906 462 906 375Q906 256 850.50 168.50Q795 81 696.50 32.50Q598-16 470-16Q361-16 279 17.50Q197 51 142.50 110.50Q88 170 60 250Q32 330 32 424L692 424L692 277L187 277L276 327Q281 275 306 238.50Q331 202 372.50 182.50Q414 163 468 163Q529 163 575 186.50Q621 210 646 256Q671 302 671 371Q671 440 646 486.50Q621 533 575 557.50Q529 582 468 582Q414 582 375.50 567.50Q337 553 312 529Q287 505 275 476L41 476Q60 565 116.50 630.50Q173 696 262.50 732Q352 768 469 768Z"  horiz-adv-x="941" vert-adv-y="1000"  />

      
      <glyph glyph-name="uni01B7" unicode="&#x01B7;" d="M64 750L755 750L755 584L421 376L399 438L474 438Q592 438 663 412.50Q734 387 765.50 340.50Q797 294 797 232Q797 160 754 103.50Q711 47 625.50 15Q540-17 412-17Q293-17 204 15.50Q115 48 65.50 108.50Q16 169 12 250L244 250Q251 207 291 183.50Q331 160 412 160Q488 160 524.50 182.50Q561 205 561 244Q561 269 548 286.50Q535 304 505 313.50Q475 323 423 323L294 323L294 469L645 683L667 574L64 574L64 750Z"  horiz-adv-x="831" vert-adv-y="1000"  />

      
      <glyph glyph-name="uni01EE" unicode="&#x01EE;" d="M64 750L755 750L755 584L421 376L399 438L474 438Q592 438 663 412.50Q734 387 765.50 340.50Q797 294 797 232Q797 160 754 103.50Q711 47 625.50 15Q540-17 412-17Q293-17 204 15.50Q115 48 65.50 108.50Q16 169 12 250L244 250Q251 207 291 183.50Q331 160 412 160Q488 160 524.50 182.50Q561 205 561 244Q561 269 548 286.50Q535 304 505 313.50Q475 323 423 323L294 323L294 469L645 683L667 574L64 574L64 750M526 803L287 803L134 977L318 977L460 873L353 873L496 977L680 977L526 803Z"  horiz-adv-x="831" vert-adv-y="1000"  />

      
      <glyph glyph-name="uni01B8" unicode="&#x01B8;" d="M767 750L767 574L164 574L186 683L537 469L537 323L408 323Q357 323 326.50 313.50Q296 304 283 286.50Q270 269 270 244Q270 205 306.50 182.50Q343 160 419 160Q500 160 540 183.50Q580 207 587 250L819 250Q816 169 766 108.50Q716 48 627.50 15.50Q539-17 419-17Q291-17 205.50 15Q120 47 77 103.50Q34 160 34 232Q34 294 65.50 340.50Q97 387 168.50 412.50Q240 438 357 438L432 438L410 376L76 584L76 750L767 750Z"  horiz-adv-x="831" vert-adv-y="1000"  />

      
      <glyph glyph-name="uni46" unicode="&#x46;" d="M178 450L725 450L725 255L178 255L178 450M744 750L744 555L189 555L298 662L298 0L65 0L65 750L744 750Z"  horiz-adv-x="781" vert-adv-y="1000"  />

      
      <glyph glyph-name="uni1E1E" unicode="&#x1E1E;" d="M178 450L725 450L725 255L178 255L178 450M744 750L744 555L189 555L298 662L298 0L65 0L65 750L744 750M392 799Q334 799 298 827.50Q262 856 262 906Q262 956 298 985Q334 1014 392 1014Q452 1014 487.50 985Q523 956 523 906Q523 856 487.50 827.50Q452 799 392 799Z"  horiz-adv-x="781" vert-adv-y="1000"  />

      
      <glyph glyph-name="uni0191" unicode="&#x0191;" d="M178 450L725 450L725 255L178 255L178 450M298 80Q298-48 231.50-115Q165-182 31-182Q-4-182-43-177.50Q-82-173-113-163L-113 8Q-95 2-73-2Q-51-6-26-6Q22-6 43.50 20Q65 46 65 95L65 750L744 750L744 555L189 555L298 662L298 80Z"  horiz-adv-x="781" vert-adv-y="1000"  />

      
      <glyph glyph-name="uni47" unicode="&#x47;" d="M839 324Q836 258 812 196.50Q788 135 742 86.50Q696 38 626 10.50Q556-17 462-17Q374-17 297 8.50Q220 34 161 83.50Q102 133 68.50 206Q35 279 35 375Q35 471 68.50 544Q102 617 162.50 666.50Q223 716 302.50 741.50Q382 767 474 767Q601 767 692.50 729Q784 691 840 624Q896 557 912 470L678 470Q669 503 640.50 526.50Q612 550 570 562.50Q528 575 476 575Q412 575 365.50 553Q319 531 294 487Q269 443 269 375Q269 307 296.50 261Q324 215 375.50 192Q427 169 497 169Q565 169 617.50 187Q670 205 702 240Q734 275 740 327L839 324M515 233L515 395L919 395L919 0L756 0L722 292L765 233L515 233Z"  horiz-adv-x="970" vert-adv-y="1000"  />

      
      <glyph glyph-name="uni01F4" unicode="&#x01F4;" d="M839 324Q836 258 812 196.50Q788 135 742 86.50Q696 38 626 10.50Q556-17 462-17Q374-17 297 8.50Q220 34 161 83.50Q102 133 68.50 206Q35 279 35 375Q35 471 68.50 544Q102 617 162.50 666.50Q223 716 302.50 741.50Q382 767 474 767Q601 767 692.50 729Q784 691 840 624Q896 557 912 470L678 470Q669 503 640.50 526.50Q612 550 570 562.50Q528 575 476 575Q412 575 365.50 553Q319 531 294 487Q269 443 269 375Q269 307 296.50 261Q324 215 375.50 192Q427 169 497 169Q565 169 617.50 187Q670 205 702 240Q734 275 740 327L839 324M515 233L515 395L919 395L919 0L756 0L722 292L765 233L515 233M488 978L746 978L569 804L341 804L488 978Z"  horiz-adv-x="970" vert-adv-y="1000"  />

      
      <glyph glyph-name="uni011E" unicode="&#x011E;" d="M839 324Q836 258 812 196.50Q788 135 742 86.50Q696 38 626 10.50Q556-17 462-17Q374-17 297 8.50Q220 34 161 83.50Q102 133 68.50 206Q35 279 35 375Q35 471 68.50 544Q102 617 162.50 666.50Q223 716 302.50 741.50Q382 767 474 767Q601 767 692.50 729Q784 691 840 624Q896 557 912 470L678 470Q669 503 640.50 526.50Q612 550 570 562.50Q528 575 476 575Q412 575 365.50 553Q319 531 294 487Q269 443 269 375Q269 307 296.50 261Q324 215 375.50 192Q427 169 497 169Q565 169 617.50 187Q670 205 702 240Q734 275 740 327L839 324M515 233L515 395L919 395L919 0L756 0L722 292L765 233L515 233M208 983L381 983Q396 958 419.50 945.50Q443 933 475 933Q508 933 531.50 945.50Q555 958 570 983L743 983Q716 887 645.50 841Q575 795 475 795Q377 795 306 841Q235 887 208 983Z"  horiz-adv-x="970" vert-adv-y="1000"  />

      
      <glyph glyph-name="uni01E6" unicode="&#x01E6;" d="M839 324Q836 258 812 196.50Q788 135 742 86.50Q696 38 626 10.50Q556-17 462-17Q374-17 297 8.50Q220 34 161 83.50Q102 133 68.50 206Q35 279 35 375Q35 471 68.50 544Q102 617 162.50 666.50Q223 716 302.50 741.50Q382 767 474 767Q601 767 692.50 729Q784 691 840 624Q896 557 912 470L678 470Q669 503 640.50 526.50Q612 550 570 562.50Q528 575 476 575Q412 575 365.50 553Q319 531 294 487Q269 443 269 375Q269 307 296.50 261Q324 215 375.50 192Q427 169 497 169Q565 169 617.50 187Q670 205 702 240Q734 275 740 327L839 324M515 233L515 395L919 395L919 0L756 0L722 292L765 233L515 233M595 803L356 803L202 977L386 977L529 873L422 873L564 977L748 977L595 803Z"  horiz-adv-x="970" vert-adv-y="1000"  />

      
      <glyph glyph-name="uni011C" unicode="&#x011C;" d="M839 324Q836 258 812 196.50Q788 135 742 86.50Q696 38 626 10.50Q556-17 462-17Q374-17 297 8.50Q220 34 161 83.50Q102 133 68.50 206Q35 279 35 375Q35 471 68.50 544Q102 617 162.50 666.50Q223 716 302.50 741.50Q382 767 474 767Q601 767 692.50 729Q784 691 840 624Q896 557 912 470L678 470Q669 503 640.50 526.50Q612 550 570 562.50Q528 575 476 575Q412 575 365.50 553Q319 531 294 487Q269 443 269 375Q269 307 296.50 261Q324 215 375.50 192Q427 169 497 169Q565 169 617.50 187Q670 205 702 240Q734 275 740 327L839 324M515 233L515 395L919 395L919 0L756 0L722 292L765 233L515 233M356 978L595 978L748 804L564 804L422 908L529 908L386 804L202 804L356 978Z"  horiz-adv-x="970" vert-adv-y="1000"  />

      
      <glyph glyph-name="uni0122" unicode="&#x0122;" d="M839 324Q836 258 812 196.50Q788 135 742 86.50Q696 38 626 10.50Q556-17 462-17Q374-17 297 8.50Q220 34 161 83.50Q102 133 68.50 206Q35 279 35 375Q35 471 68.50 544Q102 617 162.50 666.50Q223 716 302.50 741.50Q382 767 474 767Q601 767 692.50 729Q784 691 840 624Q896 557 912 470L678 470Q669 503 640.50 526.50Q612 550 570 562.50Q528 575 476 575Q412 575 365.50 553Q319 531 294 487Q269 443 269 375Q269 307 296.50 261Q324 215 375.50 192Q427 169 497 169Q565 169 617.50 187Q670 205 702 240Q734 275 740 327L839 324M515 233L515 395L919 395L919 0L756 0L722 292L765 233L515 233M376-324L479-162L488-225Q434-225 401-200.50Q368-176 368-134Q368-91 401-67Q434-43 488-43Q542-43 574.50-67Q607-91 607-135Q607-164 591-189Q575-214 541-254L482-324L376-324Z"  horiz-adv-x="970" vert-adv-y="1000"  />

      
      <glyph glyph-name="uni0120" unicode="&#x0120;" d="M839 324Q836 258 812 196.50Q788 135 742 86.50Q696 38 626 10.50Q556-17 462-17Q374-17 297 8.50Q220 34 161 83.50Q102 133 68.50 206Q35 279 35 375Q35 471 68.50 544Q102 617 162.50 666.50Q223 716 302.50 741.50Q382 767 474 767Q601 767 692.50 729Q784 691 840 624Q896 557 912 470L678 470Q669 503 640.50 526.50Q612 550 570 562.50Q528 575 476 575Q412 575 365.50 553Q319 531 294 487Q269 443 269 375Q269 307 296.50 261Q324 215 375.50 192Q427 169 497 169Q565 169 617.50 187Q670 205 702 240Q734 275 740 327L839 324M515 233L515 395L919 395L919 0L756 0L722 292L765 233L515 233M475 799Q417 799 381 827.50Q345 856 345 906Q345 956 381 985Q417 1014 475 1014Q535 1014 570.50 985Q606 956 606 906Q606 856 570.50 827.50Q535 799 475 799Z"  horiz-adv-x="970" vert-adv-y="1000"  />

      
      <glyph glyph-name="uni0193" unicode="&#x0193;" d="M464-17Q376-17 299 8.50Q222 34 163 83.50Q104 133 70.50 206Q37 279 37 375Q37 474 72 547.50Q107 621 167 669.50Q227 718 302.50 742.50Q378 767 459 767Q587 767 674.50 716Q762 665 815 548L759 565Q737 602 716 646.50Q695 691 695 735Q695 782 716 820.50Q737 859 781.50 882Q826 905 897 905Q933 905 967.50 900Q1002 895 1033 885L1033 715Q1015 720 995.50 724.50Q976 729 955 729Q908 729 887 709.50Q866 690 866 654Q866 636 871 614.50Q876 593 882 569Q889 545 897 519.50Q905 494 912 470L680 470Q671 503 642.50 526.50Q614 550 572 562.50Q530 575 478 575Q414 575 367.50 553Q321 531 295.50 487Q270 443 270 375Q270 306 298 260.50Q326 215 377.50 192Q429 169 499 169Q567 169 619.50 186.50Q672 204 704 239.50Q736 275 742 327L841 324Q837 258 813 196.50Q789 135 743 86.50Q697 38 627.50 10.50Q558-17 464-17M517 258L517 395L921 395L921 0L758 0L724 292L766 258L517 258Z"  horiz-adv-x="1019" vert-adv-y="1000"  />

      
      <glyph glyph-name="uni0241" unicode="&#x0241;" d="M402 767Q514 767 593 736Q672 705 714 650Q756 595 756 522Q756 478 744.50 443Q733 408 707.50 379Q682 350 643 321L580 276Q543 249 525 225.50Q507 202 501 173.50Q495 145 495 103L495 0L263 0L263 146Q263 204 275 245.50Q287 287 313 319.50Q339 352 381 382L449 432Q478 453 493.50 465.50Q509 478 515.50 490Q522 502 522 518Q522 550 490.50 570Q459 590 391 590Q320 590 282 565.50Q244 541 237 496L6 496Q10 570 56 631.50Q102 693 189 730Q276 767 402 767Z"  horiz-adv-x="773" vert-adv-y="1000"  />

      
      <glyph glyph-name="uni1E20" unicode="&#x1E20;" d="M839 324Q836 258 812 196.50Q788 135 742 86.50Q696 38 626 10.50Q556-17 462-17Q374-17 297 8.50Q220 34 161 83.50Q102 133 68.50 206Q35 279 35 375Q35 471 68.50 544Q102 617 162.50 666.50Q223 716 302.50 741.50Q382 767 474 767Q601 767 692.50 729Q784 691 840 624Q896 557 912 470L678 470Q669 503 640.50 526.50Q612 550 570 562.50Q528 575 476 575Q412 575 365.50 553Q319 531 294 487Q269 443 269 375Q269 307 296.50 261Q324 215 375.50 192Q427 169 497 169Q565 169 617.50 187Q670 205 702 240Q734 275 740 327L839 324M515 233L515 395L919 395L919 0L756 0L722 292L765 233L515 233M222 822L222 956L728 956L728 822L222 822Z"  horiz-adv-x="970" vert-adv-y="1000"  />

      
      <glyph glyph-name="uniA7AC" unicode="&#xA7AC;" d="M643 218L643 338L653 370L653 555L643 581L643 750L875 750L875 230Q875 128 843.50 51Q812-26 754-78Q696-130 614.50-156Q533-182 433-182Q337-182 255.50-157Q174-132 103-87L103 116Q185 56 267 34.50Q349 13 416 13Q486 13 537 34Q588 55 615.50 100.50Q643 146 643 218M359 115Q289 115 229.50 138Q170 161 126.50 204Q83 247 59 307.50Q35 368 35 441Q35 515 59 575Q83 635 126.50 678Q170 721 229.50 744Q289 767 359 767Q434 767 493.50 744Q553 721 598 683Q643 645 673 601Q703 557 718 514Q733 471 733 438Q733 401 718 358Q703 315 673 272Q643 229 598 193.50Q553 158 493.50 136.50Q434 115 359 115M433 300Q506 300 562.50 335.50Q619 371 653 441Q619 511 561.50 546.50Q504 582 433 582Q385 582 348 565.50Q311 549 290 517Q269 485 269 441Q269 397 290 365.50Q311 334 348 317Q385 300 433 300Z"  horiz-adv-x="936" vert-adv-y="1000"  />

      
      <glyph glyph-name="uni01E4" unicode="&#x01E4;" d="M485 280L1001 280L1001 175L485 175L485 280M526 428L919 428L919 386L840 386Q840 300 817.50 226.50Q795 153 749.50 98Q704 43 632 13Q560-17 463-17Q336-17 239.50 31.50Q143 80 89 168.50Q35 257 35 375Q35 471 68.50 544Q102 617 162.50 666.50Q223 716 302.50 741.50Q382 767 474 767Q599 767 685.50 732.50Q772 698 826 637.50Q880 577 906 497L662 497Q653 517 628 535Q603 553 565.50 564.50Q528 576 482 576Q416 576 368.50 553.50Q321 531 295 487Q269 443 269 375Q269 314 292 267.50Q315 221 363.50 195Q412 169 488 169Q570 169 625 189Q680 209 707.50 244.50Q735 280 735 327L735 354L765 300L526 300L526 428M745 407L919 407L919 1L774 1L745 407Z"  horiz-adv-x="1009" vert-adv-y="1000"  />

      
      <glyph glyph-name="uni021C" unicode="&#x021C;" d="M64 750L755 750L755 584L421 376L399 438L474 438Q592 438 663 412.50Q734 387 765.50 340.50Q797 294 797 232Q797 160 754 103.50Q711 47 625.50 15Q540-17 412-17Q293-17 204 15.50Q115 48 65.50 108.50Q16 169 12 250L244 250Q251 207 291 183.50Q331 160 412 160Q488 160 524.50 182.50Q561 205 561 244Q561 269 548 286.50Q535 304 505 313.50Q475 323 423 323L294 323L294 469L645 683L667 574L64 574L64 750Z"  horiz-adv-x="831" vert-adv-y="1000"  />

      
      <glyph glyph-name="uni48" unicode="&#x48;" d="M65 750L298 750L298 0L65 0L65 750M649 750L882 750L882 0L649 0L649 750M196 485L743 485L743 279L196 279L196 485Z"  horiz-adv-x="947" vert-adv-y="1000"  />

      
      <glyph glyph-name="uni0126" unicode="&#x0126;" d="M84 750L317 750L317 0L84 0L84 750M669 750L902 750L902 0L669 0L669 750M198 451L745 451L745 261L198 261L198 451M20 683L966 683L966 530L20 530L20 683Z"  horiz-adv-x="986" vert-adv-y="1000"  />

      
      <glyph glyph-name="uni1E2A" unicode="&#x1E2A;" d="M65 750L298 750L298 0L65 0L65 750M649 750L882 750L882 0L649 0L649 750M196 485L743 485L743 279L196 279L196 485M234-42L401-42Q408-73 431-90.50Q454-108 488-108Q523-108 545.50-90.50Q568-73 576-42L742-42Q727-136 662-190.50Q597-245 488-245Q380-245 315-190.50Q250-136 234-42Z"  horiz-adv-x="947" vert-adv-y="1000"  />

      
      <glyph glyph-name="uni021E" unicode="&#x021E;" d="M65 750L298 750L298 0L65 0L65 750M649 750L882 750L882 0L649 0L649 750M196 485L743 485L743 279L196 279L196 485M593 803L354 803L200 977L384 977L527 873L420 873L563 977L746 977L593 803Z"  horiz-adv-x="947" vert-adv-y="1000"  />

      
      <glyph glyph-name="uni1E28" unicode="&#x1E28;" d="M65 750L298 750L298 0L65 0L65 750M649 750L882 750L882 0L649 0L649 750M196 485L743 485L743 279L196 279L196 485M135 22L242 22L191-69L134-65Q160-53 189-45.50Q218-38 251-38Q325-38 363.50-65Q402-92 402-140Q402-191 351-224Q300-257 201-257Q114-257 57-227Q0-197-15-142L129-142Q135-152 152-159.50Q169-167 201-167Q233-167 248.50-158Q264-149 264-135Q264-122 251-113.50Q238-105 211-105Q196-105 181.50-107Q167-109 155-114L46-114L135 22Z"  horiz-adv-x="947" vert-adv-y="1000"  />

      
      <glyph glyph-name="uni0124" unicode="&#x0124;" d="M65 750L298 750L298 0L65 0L65 750M649 750L882 750L882 0L649 0L649 750M196 485L743 485L743 279L196 279L196 485M354 978L593 978L746 804L562 804L420 908L527 908L384 804L200 804L354 978Z"  horiz-adv-x="947" vert-adv-y="1000"  />

      
      <glyph glyph-name="uni1E26" unicode="&#x1E26;" d="M65 750L298 750L298 0L65 0L65 750M649 750L882 750L882 0L649 0L649 750M196 485L743 485L743 279L196 279L196 485M316 799Q261 799 228 826Q195 853 195 902Q195 948 228 975Q261 1002 316 1002Q371 1002 404 975Q437 948 437 902Q437 853 404 826Q371 799 316 799M631 799Q576 799 543 826Q510 853 510 902Q510 948 543 975Q576 1002 631 1002Q686 1002 719 975Q752 948 752 902Q752 853 719 826Q686 799 631 799Z"  horiz-adv-x="947" vert-adv-y="1000"  />

      
      <glyph glyph-name="uni1E22" unicode="&#x1E22;" d="M65 750L298 750L298 0L65 0L65 750M649 750L882 750L882 0L649 0L649 750M196 485L743 485L743 279L196 279L196 485M473 799Q415 799 379 827.50Q343 856 343 906Q343 956 379 985Q415 1014 473 1014Q533 1014 568.50 985Q604 956 604 906Q604 856 568.50 827.50Q533 799 473 799Z"  horiz-adv-x="947" vert-adv-y="1000"  />

      
      <glyph glyph-name="uni1E24" unicode="&#x1E24;" d="M65 750L298 750L298 0L65 0L65 750M649 750L882 750L882 0L649 0L649 750M196 485L743 485L743 279L196 279L196 485M473-260Q415-260 379-231Q343-202 343-153Q343-103 379-74Q415-45 473-45Q533-45 568.50-74Q604-103 604-153Q604-202 568.50-231Q533-260 473-260Z"  horiz-adv-x="947" vert-adv-y="1000"  />

      
      <glyph glyph-name="uniA726" unicode="&#xA726;" d="M65 750L298 750L298 0L65 0L65 750M196 485L743 485L743 279L196 279L196 485M649 750L882 750L882 65Q882-11 851-67Q820-123 756.50-152.50Q693-182 594-182Q543-182 497-174Q451-166 419-156L419 17Q446 6 479 0.50Q512-5 547-5Q599-5 624 18Q649 41 649 94L649 750Z"  horiz-adv-x="947" vert-adv-y="1000"  />

      
      <glyph glyph-name="uniA7AA" unicode="&#xA7AA;" d="M545 750L545 0L312 0L312 664L411 556L281 556Q248 556 230.50 541Q213 526 213 489Q213 466 217.50 442.50Q222 419 227 405L58 405Q40 436 28.50 474.50Q17 513 17 562Q17 648 69.50 699Q122 750 239 750L545 750M897 750L1129 750L1129 0L897 0L897 750M443 485L990 485L990 279L443 279L443 485Z"  horiz-adv-x="1194" vert-adv-y="1000"  />

      
      <glyph glyph-name="uniA78D" unicode="&#xA78D;" d="M56 750L289 750L289 279L56 279L56 750M578 750L811 750L811 0L578 0L578 750M187 485L671 485L671 279L187 279L187 485Z"  horiz-adv-x="876" vert-adv-y="1000"  />

      
      <glyph glyph-name="uni49" unicode="&#x49;" d="M65 750L298 750L298 0L65 0L65 750Z"  horiz-adv-x="362" vert-adv-y="1000"  />

      
      <glyph glyph-name="uni0132" unicode="&#x0132;" d="M51 750L284 750L284 417L51 417L51 750M53 353L282 353L282 330Q282 257 314.50 219.50Q347 182 422 182Q497 182 531 216.50Q565 251 565 311L565 750L798 750L798 299Q798 202 751 131Q704 60 619.50 21.50Q535-17 422-17Q311-17 229.50 23Q148 63 103.50 137Q59 211 55 311L53 353Z"  horiz-adv-x="854" vert-adv-y="1000"  />

      
      <glyph glyph-name="unicd" unicode="&#xcd;" d="M65 750L298 750L298 0L65 0L65 750M194 978L452 978L275 804L47 804L194 978Z"  horiz-adv-x="362" vert-adv-y="1000"  />

      
      <glyph glyph-name="uni012C" unicode="&#x012C;" d="M-36 978L123 978Q126 951 140.50 935Q155 919 181 919Q208 919 222 935Q236 951 240 978L398 978Q390 896 332.50 845.50Q275 795 181 795Q88 795 30 845.50Q-28 896-36 978M65 750L298 750L298 0L65 0L65 750Z"  horiz-adv-x="362" vert-adv-y="1000"  />

      
      <glyph glyph-name="uni01CF" unicode="&#x01CF;" d="M65 750L298 750L298 0L65 0L65 750M301 803L62 803L-92 977L92 977L235 873L128 873L270 977L454 977L301 803Z"  horiz-adv-x="362" vert-adv-y="1000"  />

      
      <glyph glyph-name="unice" unicode="&#xce;" d="M65 978L298 978L406 804L249 804L153 907L209 907L113 804L-44 804L65 978M65 750L298 750L298 0L65 0L65 750Z"  horiz-adv-x="362" vert-adv-y="1000"  />

      
      <glyph glyph-name="uni0208" unicode="&#x0208;" d="M318 978L414 804L243 804L137 978L318 978M87 978L182 804L12 804L-94 978L87 978M65 750L298 750L298 0L65 0L65 750Z"  horiz-adv-x="362" vert-adv-y="1000"  />

      
      <glyph glyph-name="unicf" unicode="&#xcf;" d="M66 799Q19 799-6.50 825.50Q-32 852-32 900Q-32 949-6.50 975.50Q19 1002 66 1002Q112 1002 138 975.50Q164 949 164 900Q164 852 138 825.50Q112 799 66 799M297 799Q250 799 224.50 825.50Q199 852 199 900Q199 949 224.50 975.50Q250 1002 297 1002Q343 1002 369 975.50Q395 949 395 900Q395 852 369 825.50Q343 799 297 799M65 750L298 750L298 0L65 0L65 750Z"  horiz-adv-x="362" vert-adv-y="1000"  />

      
      <glyph glyph-name="uni1E2E" unicode="&#x1E2E;" d="M66 799Q19 799-6.50 825.50Q-32 852-32 900Q-32 949-6.50 975.50Q19 1002 66 1002Q112 1002 138 975.50Q164 949 164 900Q164 852 138 825.50Q112 799 66 799M297 799Q250 799 224.50 825.50Q199 852 199 900Q199 949 224.50 975.50Q250 1002 297 1002Q343 1002 369 975.50Q395 949 395 900Q395 852 369 825.50Q343 799 297 799M65 750L298 750L298 0L65 0L65 750M195 1220L453 1220L276 1046L47 1046L195 1220Z"  horiz-adv-x="362" vert-adv-y="1000"  />

      
      <glyph glyph-name="uni0130" unicode="&#x0130;" d="M65 750L298 750L298 0L65 0L65 750M181 799Q123 799 87 827.50Q51 856 51 906Q51 956 87 985Q123 1014 181 1014Q241 1014 276.50 985Q312 956 312 906Q312 856 276.50 827.50Q241 799 181 799Z"  horiz-adv-x="362" vert-adv-y="1000"  />

      
      <glyph glyph-name="uni1ECA" unicode="&#x1ECA;" d="M65 750L298 750L298 0L65 0L65 750M181-260Q123-260 87-231Q51-202 51-153Q51-103 87-74Q123-45 181-45Q241-45 276.50-74Q312-103 312-153Q312-202 276.50-231Q241-260 181-260Z"  horiz-adv-x="362" vert-adv-y="1000"  />

      
      <glyph glyph-name="unicc" unicode="&#xcc;" d="M65 750L298 750L298 0L65 0L65 750M158 978L306 804L77 804L-100 978L158 978Z"  horiz-adv-x="362" vert-adv-y="1000"  />

      
      <glyph glyph-name="uni1EC8" unicode="&#x1EC8;" d="M65 750L298 750L298 0L65 0L65 750M133 790L93 857Q140 865 159 875.50Q178 886 178 897Q178 908 164 913.50Q150 919 121 919Q98 919 79 916.50Q60 914 38 910L38 1021Q59 1028 98 1034Q137 1040 177 1040Q271 1040 320 1014.50Q369 989 369 931Q369 879 315 844.50Q261 810 133 790Z"  horiz-adv-x="362" vert-adv-y="1000"  />

      
      <glyph glyph-name="uni020A" unicode="&#x020A;" d="M65 750L298 750L298 0L65 0L65 750M448 799L275 799Q260 823 237 836Q214 849 181 849Q148 849 125 836Q102 823 87 799L-86 799Q-59 894 11.50 940Q82 986 181 986Q281 986 351.50 940Q422 894 448 799Z"  horiz-adv-x="362" vert-adv-y="1000"  />

      
      <glyph glyph-name="uni012A" unicode="&#x012A;" d="M-13 821L-13 956L376 956L376 821L-13 821M65 750L298 750L298 0L65 0L65 750Z"  horiz-adv-x="362" vert-adv-y="1000"  />

      
      <glyph glyph-name="uni012E" unicode="&#x012E;" d="M195 12L275 12L275 0L298 0Q252-15 227-30.50Q202-46 202-66Q202-93 252-93Q266-93 280.50-91Q295-89 308-86L308-202Q295-207 262-212Q229-217 193-217Q120-217 74.50-189.50Q29-162 29-117Q29-71 71.50-39.50Q114-8 195 12M65 750L298 750L298 0L65 0L65 750Z"  horiz-adv-x="362" vert-adv-y="1000"  />

      
      <glyph glyph-name="uni0196" unicode="&#x0196;" d="M59 750L292 750L292 253Q292 204 308.50 181.50Q325 159 367 159Q384 159 401.50 162.50Q419 166 437 171L437 1Q411-7 377-12Q343-17 303-17Q178-17 118.50 48.50Q59 114 59 239L59 750Z"  horiz-adv-x="456" vert-adv-y="1000"  />

      
      <glyph glyph-name="uni0197" unicode="&#x0197;" d="M23 308L23 463L420 463L420 308L23 308M105 750L338 750L338 0L105 0L105 750Z"  horiz-adv-x="443" vert-adv-y="1000"  />

      
      <glyph glyph-name="uni0128" unicode="&#x0128;" d="M-30 805Q-25 886 8 933Q41 980 105 980Q131 980 149 973Q167 966 181.50 956.50Q196 947 209.50 940Q223 933 238 933Q256 933 266.50 945Q277 957 281 978L391 978Q387 897 354 850Q321 803 257 803Q232 803 213.50 810Q195 817 180.50 826.50Q166 836 152.50 843Q139 850 124 850Q106 850 95.50 838.50Q85 827 81 805L-30 805M65 750L298 750L298 0L65 0L65 750Z"  horiz-adv-x="362" vert-adv-y="1000"  />

      
      <glyph glyph-name="uni1E2C" unicode="&#x1E2C;" d="M-30-216Q-25-135 8-88Q41-41 105-41Q131-41 149-48Q167-55 181.50-64.50Q196-74 209.50-81Q223-88 238-88Q256-88 266.50-76Q277-64 281-43L391-43Q387-124 354-171Q321-218 257-218Q232-218 213.50-211Q195-204 180.50-194.50Q166-185 152.50-178Q139-171 124-171Q106-171 95.50-183Q85-195 81-216L-30-216M65 750L298 750L298 0L65 0L65 750Z"  horiz-adv-x="362" vert-adv-y="1000"  />

      
      <glyph glyph-name="uni4a" unicode="&#x4a;" d="M15 373L243 373L243 350Q243 267 275 224.50Q307 182 384 182Q459 182 492.50 221.50Q526 261 526 331L526 750L759 750L759 319Q759 216 712 140.50Q665 65 581 24Q497-17 384-17Q273-17 190.50 25.50Q108 68 62.50 146.50Q17 225 17 331L15 373Z"  horiz-adv-x="815" vert-adv-y="1000"  />

      
      <glyph glyph-name="uni0134" unicode="&#x0134;" d="M526 978L759 978L868 804L711 804L615 907L671 907L575 804L418 804L526 978M15 373L243 373L243 350Q243 267 275 224.50Q307 182 384 182Q459 182 492.50 221.50Q526 261 526 331L526 750L759 750L759 319Q759 216 712 140.50Q665 65 581 24Q497-17 384-17Q273-17 190.50 25.50Q108 68 62.50 146.50Q17 225 17 331L15 373Z"  horiz-adv-x="815" vert-adv-y="1000"  />

      
      <glyph glyph-name="uniA7B2" unicode="&#xA7B2;" d="M775 319Q775 223 731.50 146.50Q688 70 598.50 26.50Q509-17 372-17Q248-17 168 15.50Q88 48 49.50 101Q11 154 11 215Q11 260 32 300.50Q53 341 96 373Q139 405 208 423Q277 441 373 441Q465 441 549 418.50Q633 396 706 359.50Q779 323 839 280L839 95Q796 133 741 167Q686 201 623.50 226.50Q561 252 497 266.50Q433 281 374 281Q305 281 272.50 263Q240 245 240 219Q240 204 253 191Q266 178 293 170Q320 162 363 162Q453 162 497.50 200Q542 238 542 305L542 750L775 750L775 319Z"  horiz-adv-x="878" vert-adv-y="1000"  />

      
      <glyph glyph-name="uni0248" unicode="&#x0248;" d="M387 521L842 521L842 365L387 365L387 521M15 373L243 373L243 350Q243 267 275 224.50Q307 182 384 182Q459 182 492.50 221.50Q526 261 526 331L526 750L759 750L759 319Q759 216 712 140.50Q665 65 581 24Q497-17 384-17Q273-17 190.50 25.50Q108 68 62.50 146.50Q17 225 17 331L15 373Z"  horiz-adv-x="868" vert-adv-y="1000"  />

      
      <glyph glyph-name="uni4b" unicode="&#x4b;" d="M65 0L65 750L296 750L296 183L236 232L635 750L879 750L276 0L65 0M424 351L595 489L890 0L626 0L424 351Z"  horiz-adv-x="882" vert-adv-y="1000"  />

      
      <glyph glyph-name="uni1E30" unicode="&#x1E30;" d="M65 0L65 750L296 750L296 183L236 232L635 750L879 750L276 0L65 0M424 351L595 489L890 0L626 0L424 351M479 978L737 978L560 804L332 804L479 978Z"  horiz-adv-x="882" vert-adv-y="1000"  />

      
      <glyph glyph-name="uni01E8" unicode="&#x01E8;" d="M65 0L65 750L296 750L296 183L236 232L635 750L879 750L276 0L65 0M424 351L595 489L890 0L626 0L424 351M586 803L347 803L194 977L378 977L520 873L413 873L556 977L740 977L586 803Z"  horiz-adv-x="882" vert-adv-y="1000"  />

      
      <glyph glyph-name="uni0136" unicode="&#x0136;" d="M65 0L65 750L296 750L296 183L236 232L635 750L879 750L276 0L65 0M424 351L595 489L890 0L626 0L424 351M346-324L449-162L458-225Q404-225 371-200.50Q338-176 338-134Q338-91 371-67Q404-43 458-43Q512-43 544.50-67Q577-91 577-135Q577-164 561-189Q545-214 511-254L452-324L346-324Z"  horiz-adv-x="882" vert-adv-y="1000"  />

      
      <glyph glyph-name="uni1E32" unicode="&#x1E32;" d="M65 0L65 750L296 750L296 183L236 232L635 750L879 750L276 0L65 0M424 351L595 489L890 0L626 0L424 351M458-260Q400-260 364-231Q328-202 328-153Q328-103 364-74Q400-45 458-45Q518-45 553.50-74Q589-103 589-153Q589-202 553.50-231Q518-260 458-260Z"  horiz-adv-x="882" vert-adv-y="1000"  />

      
      <glyph glyph-name="uni0198" unicode="&#x0198;" d="M421 353L592 490L891 0L626 0L421 353M65 0L65 750L296 750L296 183L236 232L546 657Q571 690 598 715Q625 740 662 753.50Q699 767 752 767Q789 767 819 762Q849 757 877 749L877 579Q852 587 832 590.50Q812 594 792 594Q757 594 736 580Q715 566 695 542L276 0L65 0Z"  horiz-adv-x="902" vert-adv-y="1000"  />

      
      <glyph glyph-name="uni1E34" unicode="&#x1E34;" d="M65 0L65 750L296 750L296 183L236 232L635 750L879 750L276 0L65 0M424 351L595 489L890 0L626 0L424 351M221-199L221-64L726-64L726-199L221-199Z"  horiz-adv-x="882" vert-adv-y="1000"  />

      
      <glyph glyph-name="uni4c" unicode="&#x4c;" d="M298 750L298 103L193 207L752 207L752 0L65 0L65 750L298 750Z"  horiz-adv-x="772" vert-adv-y="1000"  />

      
      <glyph glyph-name="uni01C7" unicode="&#x01C7;" d="M298 750L298 103L193 207L752 207L752 0L65 0L65 750L298 750M775 373L1003 373L1003 350Q1003 267 1035 224.50Q1067 182 1144 182Q1219 182 1252.50 221.50Q1286 261 1286 331L1286 750L1519 750L1519 319Q1519 216 1472 140.50Q1425 65 1341 24Q1257-17 1144-17Q1033-17 950.50 25.50Q868 68 822.50 146.50Q777 225 777 331L775 373Z"  horiz-adv-x="1575" vert-adv-y="1000"  />

      
      <glyph glyph-name="uni0139" unicode="&#x0139;" d="M298 750L298 103L193 207L752 207L752 0L65 0L65 750L298 750M194 978L452 978L275 804L47 804L194 978Z"  horiz-adv-x="772" vert-adv-y="1000"  />

      
      <glyph glyph-name="uni023D" unicode="&#x023D;" d="M23 504L562 504L562 348L23 348L23 504M338 750L338 103L233 207L793 207L793 0L105 0L105 750L338 750Z"  horiz-adv-x="813" vert-adv-y="1000"  />

      
      <glyph glyph-name="uniA7AD" unicode="&#xA7AD;" d="M171 584Q236 584 278.50 556.50Q321 529 342.50 484Q364 439 364 387L364 261L278 261L278 391Q278 434 254.50 456Q231 478 198 478Q174 478 161 467.50Q148 457 148 440Q148 419 165 406.50Q182 394 220 394Q246 394 275.50 399Q305 404 336 410L422 436Q475 451 534 477Q593 503 660 542L660 402Q601 373 543 349Q485 325 428 309L348 289Q317 283 283.50 279Q250 275 217 275Q115 275 60 317.50Q5 360 5 434Q5 499 48 541.50Q91 584 171 584M484 750L484 103L380 207L939 207L939 0L252 0L252 750L484 750Z"  horiz-adv-x="959" vert-adv-y="1000"  />

      
      <glyph glyph-name="uni013D" unicode="&#x013D;" d="M298 750L298 103L193 207L752 207L752 0L65 0L65 750L298 750M408 750L606 750L534 504L379 504L408 750Z"  horiz-adv-x="772" vert-adv-y="1000"  />

      
      <glyph glyph-name="uni1E3C" unicode="&#x1E3C;" d="M298 750L298 103L193 207L752 207L752 0L65 0L65 750L298 750M304-42L537-42L680-236L502-236L367-95L474-95L340-236L161-236L304-42Z"  horiz-adv-x="772" vert-adv-y="1000"  />

      
      <glyph glyph-name="uni013B" unicode="&#x013B;" d="M298 750L298 103L193 207L752 207L752 0L65 0L65 750L298 750M309-324L412-162L421-225Q367-225 334-200.50Q301-176 301-134Q301-91 334-67Q367-43 421-43Q475-43 507.50-67Q540-91 540-135Q540-164 524-189Q508-214 474-254L415-324L309-324Z"  horiz-adv-x="772" vert-adv-y="1000"  />

      
      <glyph glyph-name="uni013F" unicode="&#x013F;" d="M298 750L298 103L193 207L752 207L752 0L65 0L65 750L298 750M567 346Q532 346 503 363Q474 380 457 409Q440 438 440 474Q440 510 457 539Q474 568 503 584.50Q532 601 568 601Q604 601 632.50 584.50Q661 568 678 539Q695 510 695 474Q695 438 678 409Q661 380 632.50 363Q604 346 567 346Z"  horiz-adv-x="772" vert-adv-y="1000"  />

      
      <glyph glyph-name="uni1E36" unicode="&#x1E36;" d="M298 750L298 103L193 207L752 207L752 0L65 0L65 750L298 750M420-260Q362-260 326-231Q290-202 290-153Q290-103 326-74Q362-45 420-45Q480-45 515.50-74Q551-103 551-153Q551-202 515.50-231Q480-260 420-260Z"  horiz-adv-x="772" vert-adv-y="1000"  />

      
      <glyph glyph-name="uni1E38" unicode="&#x1E38;" d="M298 750L298 103L193 207L752 207L752 0L65 0L65 750L298 750M420-260Q362-260 326-231Q290-202 290-153Q290-103 326-74Q362-45 420-45Q480-45 515.50-74Q551-103 551-153Q551-202 515.50-231Q480-260 420-260M-72 822L-72 956L434 956L434 822L-72 822Z"  horiz-adv-x="772" vert-adv-y="1000"  />

      
      <glyph glyph-name="uni01C8" unicode="&#x01C8;" d="M298 750L298 103L193 207L752 207L752 0L65 0L65 750L298 750M824 584L939 560L1053 584L1053-165L824-165L824 584M939 622Q881 622 845 651Q809 680 809 729Q809 779 845 808Q881 837 939 837Q999 837 1034.50 808Q1070 779 1070 729Q1070 680 1034.50 651Q999 622 939 622Z"  horiz-adv-x="1106" vert-adv-y="1000"  />

      
      <glyph glyph-name="uni1E3A" unicode="&#x1E3A;" d="M298 750L298 103L193 207L752 207L752 0L65 0L65 750L298 750M183-199L183-64L688-64L688-199L183-199Z"  horiz-adv-x="772" vert-adv-y="1000"  />

      
      <glyph glyph-name="uni0141" unicode="&#x0141;" d="M36 451L547 585L547 430L36 296L36 451M329 750L329 103L224 207L783 207L783 0L96 0L96 750L329 750Z"  horiz-adv-x="804" vert-adv-y="1000"  />

      
      <glyph glyph-name="uni4d" unicode="&#x4d;" d="M1191 750L1191 0L969 0L969 664L1015 659L744 0L512 0L240 657L286 663L286 0L65 0L65 750L424 750L671 123L586 123L831 750L1191 750Z"  horiz-adv-x="1255" vert-adv-y="1000"  />

      
      <glyph glyph-name="uni1E3E" unicode="&#x1E3E;" d="M1191 750L1191 0L969 0L969 664L1015 659L744 0L512 0L240 657L286 663L286 0L65 0L65 750L424 750L671 123L586 123L831 750L1191 750M641 978L899 978L722 804L494 804L641 978Z"  horiz-adv-x="1255" vert-adv-y="1000"  />

      
      <glyph glyph-name="uni1E40" unicode="&#x1E40;" d="M1191 750L1191 0L969 0L969 664L1015 659L744 0L512 0L240 657L286 663L286 0L65 0L65 750L424 750L671 123L586 123L831 750L1191 750M628 799Q570 799 534 827.50Q498 856 498 906Q498 956 534 985Q570 1014 628 1014Q688 1014 723.50 985Q759 956 759 906Q759 856 723.50 827.50Q688 799 628 799Z"  horiz-adv-x="1255" vert-adv-y="1000"  />

      
      <glyph glyph-name="uni1E42" unicode="&#x1E42;" d="M1191 750L1191 0L969 0L969 664L1015 659L744 0L512 0L240 657L286 663L286 0L65 0L65 750L424 750L671 123L586 123L831 750L1191 750M628-260Q570-260 534-231Q498-202 498-153Q498-103 534-74Q570-45 628-45Q688-45 723.50-74Q759-103 759-153Q759-202 723.50-231Q688-260 628-260Z"  horiz-adv-x="1255" vert-adv-y="1000"  />

      
      <glyph glyph-name="uni2C6E" unicode="&#x2C6E;" d="M969 95L969 664L1015 659L744 0L512 0L240 657L286 663L286 0L65 0L65 750L424 750L671 123L586 123L831 750L1191 750L1191 80Q1191-48 1130-115Q1069-182 936-182Q901-182 862-177.50Q823-173 792-163L792 8Q809 2 831-2Q853-6 878-6Q927-6 948 20Q969 46 969 95Z"  horiz-adv-x="1255" vert-adv-y="1000"  />

      
      <glyph glyph-name="uni019C" unicode="&#x019C;" d="M1218 0L985 0L946 245L946 750L1179 750L1179 202L1218 0M753-17Q674-17 618 17.50Q562 52 532.50 114Q503 176 503 259L503 750L735 750L735 292Q735 237 761 207.50Q787 178 836 178Q871 178 895.50 193.50Q920 209 933 238Q946 267 946 307L1016 271Q1003 176 965 111.50Q927 47 872.50 15Q818-17 753-17M311-17Q231-17 175 16Q119 49 89 109.50Q59 170 59 251L59 750L292 750L292 292Q292 237 317.50 207.50Q343 178 392 178Q427 178 451.50 193.50Q476 209 489.50 238Q503 267 503 307L573 271Q560 176 522.50 111.50Q485 47 430.50 15Q376-17 311-17Z"  horiz-adv-x="1254" vert-adv-y="1000"  />

      
      <glyph glyph-name="uni4e" unicode="&#x4e;" d="M760 166L693 152L693 750L919 750L919 0L627 0L224 598L290 612L290 0L65 0L65 750L366 750L760 166Z"  horiz-adv-x="983" vert-adv-y="1000"  />

      
      <glyph glyph-name="uni01CA" unicode="&#x01CA;" d="M760 166L693 152L693 750L919 750L919 0L627 0L224 598L290 612L290 0L65 0L65 750L366 750L760 166M998 373L1226 373L1226 350Q1226 267 1258 224.50Q1290 182 1367 182Q1442 182 1475.50 221.50Q1509 261 1509 331L1509 750L1742 750L1742 319Q1742 216 1695 140.50Q1648 65 1564 24Q1480-17 1367-17Q1256-17 1173.50 25.50Q1091 68 1045.50 146.50Q1000 225 1000 331L998 373Z"  horiz-adv-x="1798" vert-adv-y="1000"  />

      
      <glyph glyph-name="uni0143" unicode="&#x0143;" d="M760 166L693 152L693 750L919 750L919 0L627 0L224 598L290 612L290 0L65 0L65 750L366 750L760 166M518 978L776 978L599 804L371 804L518 978Z"  horiz-adv-x="983" vert-adv-y="1000"  />

      
      <glyph glyph-name="uni0147" unicode="&#x0147;" d="M760 166L693 152L693 750L919 750L919 0L627 0L224 598L290 612L290 0L65 0L65 750L366 750L760 166M625 803L386 803L233 977L417 977L559 873L452 873L595 977L779 977L625 803Z"  horiz-adv-x="983" vert-adv-y="1000"  />

      
      <glyph glyph-name="uni1E4A" unicode="&#x1E4A;" d="M760 166L693 152L693 750L919 750L919 0L627 0L224 598L290 612L290 0L65 0L65 750L366 750L760 166M375-42L608-42L751-236L573-236L438-95L545-95L411-236L232-236L375-42Z"  horiz-adv-x="983" vert-adv-y="1000"  />

      
      <glyph glyph-name="uni0145" unicode="&#x0145;" d="M760 166L693 152L693 750L919 750L919 0L627 0L224 598L290 612L290 0L65 0L65 750L366 750L760 166M380-324L483-162L492-225Q438-225 405-200.50Q372-176 372-134Q372-91 405-67Q438-43 492-43Q546-43 578.50-67Q611-91 611-135Q611-164 595-189Q579-214 545-254L486-324L380-324Z"  horiz-adv-x="983" vert-adv-y="1000"  />

      
      <glyph glyph-name="uni1E44" unicode="&#x1E44;" d="M760 166L693 152L693 750L919 750L919 0L627 0L224 598L290 612L290 0L65 0L65 750L366 750L760 166M506 799Q448 799 412 827.50Q376 856 376 906Q376 956 412 985Q448 1014 506 1014Q566 1014 601.50 985Q637 956 637 906Q637 856 601.50 827.50Q566 799 506 799Z"  horiz-adv-x="983" vert-adv-y="1000"  />

      
      <glyph glyph-name="uni1E46" unicode="&#x1E46;" d="M760 166L693 152L693 750L919 750L919 0L627 0L224 598L290 612L290 0L65 0L65 750L366 750L760 166M492-260Q434-260 398-231Q362-202 362-153Q362-103 398-74Q434-45 492-45Q552-45 587.50-74Q623-103 623-153Q623-202 587.50-231Q552-260 492-260Z"  horiz-adv-x="983" vert-adv-y="1000"  />

      
      <glyph glyph-name="uni01F8" unicode="&#x01F8;" d="M760 166L693 152L693 750L919 750L919 0L627 0L224 598L290 612L290 0L65 0L65 750L366 750L760 166M483 978L631 804L402 804L225 978L483 978Z"  horiz-adv-x="983" vert-adv-y="1000"  />

      
      <glyph glyph-name="uni019D" unicode="&#x019D;" d="M65 750L366 750L760 166L693 152L693 750L919 750L919 0L627 0L224 598L290 612L290 81Q290-48 226.50-115Q163-182 29-182Q-6-182-44-177.50Q-82-173-113-163L-113 7Q-95 2-73.50-2Q-52-6-28-6Q22-6 43.50 20Q65 46 65 95L65 750Z"  horiz-adv-x="983" vert-adv-y="1000"  />

      
      <glyph glyph-name="uni01CB" unicode="&#x01CB;" d="M760 166L693 152L693 750L919 750L919 0L627 0L224 598L290 612L290 0L65 0L65 750L366 750L760 166M1035 584L1150 560L1264 584L1264-165L1035-165L1035 584M1150 622Q1092 622 1056 651Q1020 680 1020 729Q1020 779 1056 808Q1092 837 1150 837Q1210 837 1245.50 808Q1281 779 1281 729Q1281 680 1245.50 651Q1210 622 1150 622Z"  horiz-adv-x="1317" vert-adv-y="1000"  />

      
      <glyph glyph-name="uni1E48" unicode="&#x1E48;" d="M760 166L693 152L693 750L919 750L919 0L627 0L224 598L290 612L290 0L65 0L65 750L366 750L760 166M255-199L255-64L760-64L760-199L255-199Z"  horiz-adv-x="983" vert-adv-y="1000"  />

      
      <glyph glyph-name="uni0220" unicode="&#x0220;" d="M65 750L298 750L298 0L65 0L65 750M549 767Q642 767 709 730.50Q776 694 812 626.50Q848 559 848 469L848-165L615-165L615 414Q615 484 575.50 521.50Q536 559 462 559Q410 559 373 540.50Q336 522 317 487Q298 452 298 403L226 438Q248 560 292.50 632Q337 704 402.50 735.50Q468 767 549 767Z"  horiz-adv-x="905" vert-adv-y="1000"  />

      
      <glyph glyph-name="unid1" unicode="&#xd1;" d="M760 166L693 152L693 750L919 750L919 0L627 0L224 598L290 612L290 0L65 0L65 750L366 750L760 166M221 808Q233 893 277.50 941Q322 989 409 989Q437 989 462.50 982Q488 975 511 966.50Q534 958 554 951Q574 944 591 944Q612 944 625.50 954Q639 964 643 983L789 983Q777 900 733 851Q689 802 602 802Q574 802 548.50 809Q523 816 500 825Q477 834 456.50 841Q436 848 419 848Q399 848 385 838Q371 828 368 808L221 808Z"  horiz-adv-x="983" vert-adv-y="1000"  />

      
      <glyph glyph-name="uni014A" unicode="&#x014A;" d="M65 750L298 750L298 0L65 0L65 750M871 470L871 65Q871-11 839.50-67Q808-123 744.50-152.50Q681-182 581-182Q530-182 484-174Q438-166 407-156L407 17Q431 8 466 1.50Q501-5 539-5Q592-5 615 20Q638 45 638 93L638 415Q638 485 595.50 522.50Q553 560 473 560Q418 560 378.50 541Q339 522 318.50 486.50Q298 451 298 401L226 438Q248 560 298 632Q348 704 416 735.50Q484 767 560 767Q657 767 726.50 730.50Q796 694 833.50 627Q871 560 871 470Z"  horiz-adv-x="928" vert-adv-y="1000"  />

      
      <glyph glyph-name="uni4f" unicode="&#x4f;" d="M485-17Q350-17 248.50 32Q147 81 90.50 169Q34 257 34 375Q34 493 90.50 581Q147 669 248.50 718Q350 767 485 767Q620 767 721.50 718Q823 669 879.50 581Q936 493 936 375Q936 257 879.50 169Q823 81 721.50 32Q620-17 485-17M485 190Q552 190 600.50 212.50Q649 235 675 276.50Q701 318 701 375Q701 432 675 473.50Q649 515 600.50 537.50Q552 560 485 560Q418 560 369.50 537.50Q321 515 295 473.50Q269 432 269 375Q269 318 295 276.50Q321 235 369.50 212.50Q418 190 485 190Z"  horiz-adv-x="970" vert-adv-y="1000"  />

      
      <glyph glyph-name="unid3" unicode="&#xd3;" d="M485-17Q350-17 248.50 32Q147 81 90.50 169Q34 257 34 375Q34 493 90.50 581Q147 669 248.50 718Q350 767 485 767Q620 767 721.50 718Q823 669 879.50 581Q936 493 936 375Q936 257 879.50 169Q823 81 721.50 32Q620-17 485-17M485 190Q552 190 600.50 212.50Q649 235 675 276.50Q701 318 701 375Q701 432 675 473.50Q649 515 600.50 537.50Q552 560 485 560Q418 560 369.50 537.50Q321 515 295 473.50Q269 432 269 375Q269 318 295 276.50Q321 235 369.50 212.50Q418 190 485 190M498 978L756 978L579 804L351 804L498 978Z"  horiz-adv-x="970" vert-adv-y="1000"  />

      
      <glyph glyph-name="uni014E" unicode="&#x014E;" d="M485-17Q350-17 248.50 32Q147 81 90.50 169Q34 257 34 375Q34 493 90.50 581Q147 669 248.50 718Q350 767 485 767Q620 767 721.50 718Q823 669 879.50 581Q936 493 936 375Q936 257 879.50 169Q823 81 721.50 32Q620-17 485-17M485 190Q552 190 600.50 212.50Q649 235 675 276.50Q701 318 701 375Q701 432 675 473.50Q649 515 600.50 537.50Q552 560 485 560Q418 560 369.50 537.50Q321 515 295 473.50Q269 432 269 375Q269 318 295 276.50Q321 235 369.50 212.50Q418 190 485 190M218 983L391 983Q406 958 429.50 945.50Q453 933 485 933Q518 933 541.50 945.50Q565 958 580 983L753 983Q726 887 655.50 841Q585 795 485 795Q387 795 316 841Q245 887 218 983Z"  horiz-adv-x="970" vert-adv-y="1000"  />

      
      <glyph glyph-name="uni01D1" unicode="&#x01D1;" d="M485-17Q350-17 248.50 32Q147 81 90.50 169Q34 257 34 375Q34 493 90.50 581Q147 669 248.50 718Q350 767 485 767Q620 767 721.50 718Q823 669 879.50 581Q936 493 936 375Q936 257 879.50 169Q823 81 721.50 32Q620-17 485-17M485 190Q552 190 600.50 212.50Q649 235 675 276.50Q701 318 701 375Q701 432 675 473.50Q649 515 600.50 537.50Q552 560 485 560Q418 560 369.50 537.50Q321 515 295 473.50Q269 432 269 375Q269 318 295 276.50Q321 235 369.50 212.50Q418 190 485 190M605 803L366 803L212 977L396 977L539 873L432 873L574 977L758 977L605 803Z"  horiz-adv-x="970" vert-adv-y="1000"  />

      
      <glyph glyph-name="uni019F" unicode="&#x019F;" d="M92 456L846 456L846 294L92 294L92 456M485-17Q350-17 248.50 32Q147 81 90.50 169Q34 257 34 375Q34 493 90.50 581Q147 669 248.50 718Q350 767 485 767Q620 767 721.50 718Q823 669 879.50 581Q936 493 936 375Q936 257 879.50 169Q823 81 721.50 32Q620-17 485-17M485 176Q555 176 605 200Q655 224 682 269Q709 314 709 375Q709 437 682 481.50Q655 526 605 550Q555 574 485 574Q416 574 366 550Q316 526 288.50 481.50Q261 437 261 375Q261 314 288.50 269Q316 224 366 200Q416 176 485 176Z"  horiz-adv-x="970" vert-adv-y="1000"  />

      
      <glyph glyph-name="unid4" unicode="&#xd4;" d="M485-17Q350-17 248.50 32Q147 81 90.50 169Q34 257 34 375Q34 493 90.50 581Q147 669 248.50 718Q350 767 485 767Q620 767 721.50 718Q823 669 879.50 581Q936 493 936 375Q936 257 879.50 169Q823 81 721.50 32Q620-17 485-17M485 190Q552 190 600.50 212.50Q649 235 675 276.50Q701 318 701 375Q701 432 675 473.50Q649 515 600.50 537.50Q552 560 485 560Q418 560 369.50 537.50Q321 515 295 473.50Q269 432 269 375Q269 318 295 276.50Q321 235 369.50 212.50Q418 190 485 190M366 978L605 978L758 804L574 804L432 908L539 908L396 804L212 804L366 978Z"  horiz-adv-x="970" vert-adv-y="1000"  />

      
      <glyph glyph-name="uni1ED0" unicode="&#x1ED0;" d="M485-17Q350-17 248.50 32Q147 81 90.50 169Q34 257 34 375Q34 493 90.50 581Q147 669 248.50 718Q350 767 485 767Q620 767 721.50 718Q823 669 879.50 581Q936 493 936 375Q936 257 879.50 169Q823 81 721.50 32Q620-17 485-17M485 190Q552 190 600.50 212.50Q649 235 675 276.50Q701 318 701 375Q701 432 675 473.50Q649 515 600.50 537.50Q552 560 485 560Q418 560 369.50 537.50Q321 515 295 473.50Q269 432 269 375Q269 318 295 276.50Q321 235 369.50 212.50Q418 190 485 190M760 1106L965 1106L838 940L664 940L760 1106M366 978L605 978L759 804L575 804L432 908L539 908L396 804L213 804L366 978Z"  horiz-adv-x="970" vert-adv-y="1000"  />

      
      <glyph glyph-name="uni1ED8" unicode="&#x1ED8;" d="M485-17Q350-17 248.50 32Q147 81 90.50 169Q34 257 34 375Q34 493 90.50 581Q147 669 248.50 718Q350 767 485 767Q620 767 721.50 718Q823 669 879.50 581Q936 493 936 375Q936 257 879.50 169Q823 81 721.50 32Q620-17 485-17M485 190Q552 190 600.50 212.50Q649 235 675 276.50Q701 318 701 375Q701 432 675 473.50Q649 515 600.50 537.50Q552 560 485 560Q418 560 369.50 537.50Q321 515 295 473.50Q269 432 269 375Q269 318 295 276.50Q321 235 369.50 212.50Q418 190 485 190M485-260Q427-260 391-231Q355-202 355-153Q355-103 391-74Q427-45 485-45Q545-45 580.50-74Q616-103 616-153Q616-202 580.50-231Q545-260 485-260M366 978L605 978L758 804L574 804L432 908L539 908L396 804L212 804L366 978Z"  horiz-adv-x="970" vert-adv-y="1000"  />

      
      <glyph glyph-name="uni1ED2" unicode="&#x1ED2;" d="M485-17Q350-17 248.50 32Q147 81 90.50 169Q34 257 34 375Q34 493 90.50 581Q147 669 248.50 718Q350 767 485 767Q620 767 721.50 718Q823 669 879.50 581Q936 493 936 375Q936 257 879.50 169Q823 81 721.50 32Q620-17 485-17M485 190Q552 190 600.50 212.50Q649 235 675 276.50Q701 318 701 375Q701 432 675 473.50Q649 515 600.50 537.50Q552 560 485 560Q418 560 369.50 537.50Q321 515 295 473.50Q269 432 269 375Q269 318 295 276.50Q321 235 369.50 212.50Q418 190 485 190M766 1106L862 940L688 940L561 1106L766 1106M366 978L605 978L759 804L575 804L432 908L539 908L396 804L213 804L366 978Z"  horiz-adv-x="970" vert-adv-y="1000"  />

      
      <glyph glyph-name="uni1ED4" unicode="&#x1ED4;" d="M485-17Q350-17 248.50 32Q147 81 90.50 169Q34 257 34 375Q34 493 90.50 581Q147 669 248.50 718Q350 767 485 767Q620 767 721.50 718Q823 669 879.50 581Q936 493 936 375Q936 257 879.50 169Q823 81 721.50 32Q620-17 485-17M485 190Q552 190 600.50 212.50Q649 235 675 276.50Q701 318 701 375Q701 432 675 473.50Q649 515 600.50 537.50Q552 560 485 560Q418 560 369.50 537.50Q321 515 295 473.50Q269 432 269 375Q269 318 295 276.50Q321 235 369.50 212.50Q418 190 485 190M711 918L671 971Q699 981 712 992Q725 1003 725 1015Q725 1042 671 1042Q658 1042 642 1040.50Q626 1039 609 1035L609 1149Q629 1155 662 1159.50Q695 1164 732 1164Q815 1164 861 1137Q907 1110 907 1061Q907 1012 858 975.50Q809 939 711 918M366 978L605 978L759 804L575 804L432 908L539 908L396 804L213 804L366 978Z"  horiz-adv-x="970" vert-adv-y="1000"  />

      
      <glyph glyph-name="uni1ED6" unicode="&#x1ED6;" d="M485-17Q350-17 248.50 32Q147 81 90.50 169Q34 257 34 375Q34 493 90.50 581Q147 669 248.50 718Q350 767 485 767Q620 767 721.50 718Q823 669 879.50 581Q936 493 936 375Q936 257 879.50 169Q823 81 721.50 32Q620-17 485-17M485 190Q552 190 600.50 212.50Q649 235 675 276.50Q701 318 701 375Q701 432 675 473.50Q649 515 600.50 537.50Q552 560 485 560Q418 560 369.50 537.50Q321 515 295 473.50Q269 432 269 375Q269 318 295 276.50Q321 235 369.50 212.50Q418 190 485 190M238 1017Q243 1096 280 1145Q317 1194 386 1194Q417 1194 441 1186.50Q465 1179 483 1169.50Q501 1160 517 1152.50Q533 1145 547 1145Q566 1145 577 1157Q588 1169 592 1192L729 1192Q725 1110 687.50 1062.50Q650 1015 581 1015Q550 1015 526 1023Q502 1031 483.50 1040.50Q465 1050 449.50 1057Q434 1064 420 1064Q400 1064 389.50 1052Q379 1040 375 1017L238 1017M366 978L605 978L758 804L574 804L432 908L539 908L396 804L212 804L366 978Z"  horiz-adv-x="970" vert-adv-y="1000"  />

      
      <glyph glyph-name="uni020C" unicode="&#x020C;" d="M485-17Q350-17 248.50 32Q147 81 90.50 169Q34 257 34 375Q34 493 90.50 581Q147 669 248.50 718Q350 767 485 767Q620 767 721.50 718Q823 669 879.50 581Q936 493 936 375Q936 257 879.50 169Q823 81 721.50 32Q620-17 485-17M485 190Q552 190 600.50 212.50Q649 235 675 276.50Q701 318 701 375Q701 432 675 473.50Q649 515 600.50 537.50Q552 560 485 560Q418 560 369.50 537.50Q321 515 295 473.50Q269 432 269 375Q269 318 295 276.50Q321 235 369.50 212.50Q418 190 485 190M598 978L722 804L524 804L381 978L598 978M321 978L445 804L247 804L103 978L321 978Z"  horiz-adv-x="970" vert-adv-y="1000"  />

      
      <glyph glyph-name="unid6" unicode="&#xd6;" d="M485-17Q350-17 248.50 32Q147 81 90.50 169Q34 257 34 375Q34 493 90.50 581Q147 669 248.50 718Q350 767 485 767Q620 767 721.50 718Q823 669 879.50 581Q936 493 936 375Q936 257 879.50 169Q823 81 721.50 32Q620-17 485-17M485 190Q552 190 600.50 212.50Q649 235 675 276.50Q701 318 701 375Q701 432 675 473.50Q649 515 600.50 537.50Q552 560 485 560Q418 560 369.50 537.50Q321 515 295 473.50Q269 432 269 375Q269 318 295 276.50Q321 235 369.50 212.50Q418 190 485 190M328 799Q273 799 240 826Q207 853 207 902Q207 948 240 975Q273 1002 328 1002Q383 1002 416 975Q449 948 449 902Q449 853 416 826Q383 799 328 799M643 799Q588 799 555 826Q522 853 522 902Q522 948 555 975Q588 1002 643 1002Q698 1002 731 975Q764 948 764 902Q764 853 731 826Q698 799 643 799Z"  horiz-adv-x="970" vert-adv-y="1000"  />

      
      <glyph glyph-name="uni022A" unicode="&#x022A;" d="M485-17Q350-17 248.50 32Q147 81 90.50 169Q34 257 34 375Q34 493 90.50 581Q147 669 248.50 718Q350 767 485 767Q620 767 721.50 718Q823 669 879.50 581Q936 493 936 375Q936 257 879.50 169Q823 81 721.50 32Q620-17 485-17M485 190Q552 190 600.50 212.50Q649 235 675 276.50Q701 318 701 375Q701 432 675 473.50Q649 515 600.50 537.50Q552 560 485 560Q418 560 369.50 537.50Q321 515 295 473.50Q269 432 269 375Q269 318 295 276.50Q321 235 369.50 212.50Q418 190 485 190M328 799Q273 799 240 826Q207 853 207 902Q207 948 240 975Q273 1002 328 1002Q383 1002 416 975Q449 948 449 902Q449 853 416 826Q383 799 328 799M643 799Q588 799 555 826Q522 853 522 902Q522 948 555 975Q588 1002 643 1002Q698 1002 731 975Q764 948 764 902Q764 853 731 826Q698 799 643 799M233 1045L233 1179L739 1179L739 1045L233 1045Z"  horiz-adv-x="970" vert-adv-y="1000"  />

      
      <glyph glyph-name="uni022E" unicode="&#x022E;" d="M485-17Q350-17 248.50 32Q147 81 90.50 169Q34 257 34 375Q34 493 90.50 581Q147 669 248.50 718Q350 767 485 767Q620 767 721.50 718Q823 669 879.50 581Q936 493 936 375Q936 257 879.50 169Q823 81 721.50 32Q620-17 485-17M485 190Q552 190 600.50 212.50Q649 235 675 276.50Q701 318 701 375Q701 432 675 473.50Q649 515 600.50 537.50Q552 560 485 560Q418 560 369.50 537.50Q321 515 295 473.50Q269 432 269 375Q269 318 295 276.50Q321 235 369.50 212.50Q418 190 485 190M485 799Q427 799 391 827.50Q355 856 355 906Q355 956 391 985Q427 1014 485 1014Q545 1014 580.50 985Q616 956 616 906Q616 856 580.50 827.50Q545 799 485 799Z"  horiz-adv-x="970" vert-adv-y="1000"  />

      
      <glyph glyph-name="uni0230" unicode="&#x0230;" d="M485-17Q350-17 248.50 32Q147 81 90.50 169Q34 257 34 375Q34 493 90.50 581Q147 669 248.50 718Q350 767 485 767Q620 767 721.50 718Q823 669 879.50 581Q936 493 936 375Q936 257 879.50 169Q823 81 721.50 32Q620-17 485-17M485 190Q552 190 600.50 212.50Q649 235 675 276.50Q701 318 701 375Q701 432 675 473.50Q649 515 600.50 537.50Q552 560 485 560Q418 560 369.50 537.50Q321 515 295 473.50Q269 432 269 375Q269 318 295 276.50Q321 235 369.50 212.50Q418 190 485 190M485 799Q427 799 391 827.50Q355 856 355 906Q355 956 391 985Q427 1014 485 1014Q545 1014 580.50 985Q616 956 616 906Q616 856 580.50 827.50Q545 799 485 799M232 1045L232 1179L738 1179L738 1045L232 1045Z"  horiz-adv-x="970" vert-adv-y="1000"  />

      
      <glyph glyph-name="uni1ECC" unicode="&#x1ECC;" d="M485-17Q350-17 248.50 32Q147 81 90.50 169Q34 257 34 375Q34 493 90.50 581Q147 669 248.50 718Q350 767 485 767Q620 767 721.50 718Q823 669 879.50 581Q936 493 936 375Q936 257 879.50 169Q823 81 721.50 32Q620-17 485-17M485 190Q552 190 600.50 212.50Q649 235 675 276.50Q701 318 701 375Q701 432 675 473.50Q649 515 600.50 537.50Q552 560 485 560Q418 560 369.50 537.50Q321 515 295 473.50Q269 432 269 375Q269 318 295 276.50Q321 235 369.50 212.50Q418 190 485 190M485-260Q427-260 391-231Q355-202 355-153Q355-103 391-74Q427-45 485-45Q545-45 580.50-74Q616-103 616-153Q616-202 580.50-231Q545-260 485-260Z"  horiz-adv-x="970" vert-adv-y="1000"  />

      
      <glyph glyph-name="unid2" unicode="&#xd2;" d="M485-17Q350-17 248.50 32Q147 81 90.50 169Q34 257 34 375Q34 493 90.50 581Q147 669 248.50 718Q350 767 485 767Q620 767 721.50 718Q823 669 879.50 581Q936 493 936 375Q936 257 879.50 169Q823 81 721.50 32Q620-17 485-17M485 190Q552 190 600.50 212.50Q649 235 675 276.50Q701 318 701 375Q701 432 675 473.50Q649 515 600.50 537.50Q552 560 485 560Q418 560 369.50 537.50Q321 515 295 473.50Q269 432 269 375Q269 318 295 276.50Q321 235 369.50 212.50Q418 190 485 190M462 978L610 804L381 804L204 978L462 978Z"  horiz-adv-x="970" vert-adv-y="1000"  />

      
      <glyph glyph-name="uni1ECE" unicode="&#x1ECE;" d="M485-17Q350-17 248.50 32Q147 81 90.50 169Q34 257 34 375Q34 493 90.50 581Q147 669 248.50 718Q350 767 485 767Q620 767 721.50 718Q823 669 879.50 581Q936 493 936 375Q936 257 879.50 169Q823 81 721.50 32Q620-17 485-17M485 190Q552 190 600.50 212.50Q649 235 675 276.50Q701 318 701 375Q701 432 675 473.50Q649 515 600.50 537.50Q552 560 485 560Q418 560 369.50 537.50Q321 515 295 473.50Q269 432 269 375Q269 318 295 276.50Q321 235 369.50 212.50Q418 190 485 190M437 790L397 857Q444 865 463 875.50Q482 886 482 897Q482 908 468 913.50Q454 919 425 919Q402 919 383 916.50Q364 914 342 910L342 1021Q363 1028 402 1034Q441 1040 481 1040Q575 1040 624 1014.50Q673 989 673 931Q673 879 619 844.50Q565 810 437 790Z"  horiz-adv-x="970" vert-adv-y="1000"  />

      
      <glyph glyph-name="uni01A0" unicode="&#x01A0;" d="M485-17Q350-17 248.50 32Q147 81 90.50 169Q34 257 34 375Q34 493 90.50 581Q147 669 248.50 718Q350 767 485 767Q530 767 561.50 763Q593 759 619 753Q642 749 662.50 745.50Q683 742 704 742Q753 742 773 761Q793 780 793 803Q793 820 786 839Q779 858 763 880L935 880Q952 854 961 826.50Q970 799 970 772Q970 720 936 683Q902 646 839 630Q885 581 910.50 516.50Q936 452 936 375Q936 257 879.50 169Q823 81 721.50 32Q620-17 485-17M485 190Q552 190 600.50 212.50Q649 235 675 276.50Q701 318 701 375Q701 432 675 473.50Q649 515 600.50 537.50Q552 560 485 560Q418 560 369.50 537.50Q321 515 295 473.50Q269 432 269 375Q269 318 295 276.50Q321 235 369.50 212.50Q418 190 485 190Z"  horiz-adv-x="980" vert-adv-y="1000"  />

      
      <glyph glyph-name="uni1EDA" unicode="&#x1EDA;" d="M485-17Q350-17 248.50 32Q147 81 90.50 169Q34 257 34 375Q34 493 90.50 581Q147 669 248.50 718Q350 767 485 767Q530 767 561.50 763Q593 759 619 753Q642 749 662.50 745.50Q683 742 704 742Q753 742 773 761Q793 780 793 803Q793 820 786 839Q779 858 763 880L935 880Q952 854 961 826.50Q970 799 970 772Q970 720 936 683Q902 646 839 630Q885 581 910.50 516.50Q936 452 936 375Q936 257 879.50 169Q823 81 721.50 32Q620-17 485-17M485 190Q552 190 600.50 212.50Q649 235 675 276.50Q701 318 701 375Q701 432 675 473.50Q649 515 600.50 537.50Q552 560 485 560Q418 560 369.50 537.50Q321 515 295 473.50Q269 432 269 375Q269 318 295 276.50Q321 235 369.50 212.50Q418 190 485 190M490 978L748 978L571 804L343 804L490 978Z"  horiz-adv-x="980" vert-adv-y="1000"  />

      
      </font>
</defs>
</svg>
